<svg width="30" height="30" viewBox="0 0 30 30" fill="none" xmlns="http://www.w3.org/2000/svg">
<g clip-path="url(#clip0_159_2644)">
<path d="M26.9363 12.3386C27.0101 12.0408 26.9363 10.2561 26.9363 9.84595C26.5798 10.1096 26.1446 10.344 25.643 10.554C23.1694 11.5818 18.8984 12.0359 14.7013 11.9773C10.4991 11.9187 6.34374 11.345 4.10376 10.322C3.77674 10.1731 3.4866 10.012 3.23826 9.83862V12.4509C4.86845 13.9377 9.79838 14.7263 14.8365 14.7483C19.8894 14.7727 24.9939 14.0208 26.9388 12.4314V12.3386H26.9363ZM5.33071 16.5354C12.39 18.5813 18.8591 18.4519 24.8414 16.5354V24.5945C19.0534 26.8674 12.6531 27.1995 5.33071 24.5945V16.5354ZM27.9272 11.5549C28.4141 11.677 28.8493 11.9285 29.1935 12.2727C29.6902 12.7659 29.9975 13.447 29.9975 14.1941V26.3132C29.9975 26.428 29.9582 26.5354 29.8894 26.6184C29.8721 26.6428 29.8549 26.6672 29.8353 26.6916C28.537 28.4055 22.9973 29.697 16.9142 29.9509C10.8778 30.2024 4.24637 29.4651 0.668798 27.1482C0.508975 27.0432 0.351611 26.9358 0.199164 26.821C0.0713056 26.7258 0.00245881 26.5769 0.00245881 26.428H0V14.0793C0 13.3616 0.295058 12.7097 0.769609 12.2385C1.16056 11.8503 1.67199 11.5842 2.24244 11.5012V8.53491C2.24244 8.36645 2.3285 8.21753 2.45881 8.1272C3.30465 7.45581 4.74059 6.84302 6.50111 6.40845C8.13622 6.00561 10.0738 5.74927 12.0925 5.73462C12.1023 5.73462 12.1121 5.73462 12.1244 5.73462C13.1768 4.55054 13.8284 2.84887 13.9636 0.458738C13.9784 0.187742 14.2119 -0.0197777 14.4849 -0.00512921C14.507 -0.00512921 14.5291 -0.0002464 14.5488 0.00219501C16.9855 0.319578 20.2139 1.41821 22.9137 3.11743C25.0209 4.44311 26.8183 6.13745 27.7084 8.12475C27.8387 8.21264 27.9248 8.36157 27.9248 8.53247V11.5549H27.9272ZM2.2449 12.5022C1.94738 12.573 1.68183 12.7268 1.47037 12.9343C1.17285 13.2297 0.990902 13.635 0.990902 14.0793V26.1814C1.06221 26.2302 1.13351 26.2791 1.20728 26.3279C4.59798 28.5251 11.0081 29.2185 16.8748 28.9719C22.6309 28.7302 27.8043 27.6169 29.0066 26.1545V14.1941C29.0066 13.718 28.8099 13.2834 28.4927 12.9685C28.3305 12.8074 28.1387 12.678 27.9248 12.5901V12.6511C27.9248 12.8074 27.851 12.9465 27.7354 13.0369C25.7094 14.8801 20.2115 15.7517 14.8267 15.7273C9.41726 15.7004 4.05704 14.7629 2.38505 12.9905L2.38013 12.9856C2.29162 12.8904 2.24736 12.7708 2.24736 12.6511H2.2449V12.5022ZM10.9466 6.75268C9.43201 6.83569 7.99607 7.05542 6.73961 7.36304C5.8028 7.59497 4.97664 7.87329 4.30047 8.17847C6.81583 8.2102 8.99926 7.88794 10.6442 6.93579C10.7475 6.87964 10.8483 6.81616 10.9466 6.75268ZM22.39 3.95239C19.9852 2.44116 17.1576 1.42798 14.9127 1.052C14.6029 4.47485 13.2407 6.57446 11.1409 7.78784C9.25498 8.87671 6.79862 9.22095 3.99311 9.15747C4.14802 9.25024 4.32506 9.34057 4.51684 9.42846C6.63388 10.3977 10.6368 10.9397 14.7111 10.9958C18.7878 11.052 22.9112 10.6223 25.2619 9.64575C26.0118 9.33325 26.5601 8.97925 26.8306 8.5813C26.0388 6.76733 24.3644 5.19507 22.39 3.95239Z" fill="white"/>
</g>
<defs>
<clipPath id="clip0_159_2644">
<rect width="30" height="30" fill="white"/>
</clipPath>
</defs>
</svg>
