<svg width="32" height="32" viewBox="0 0 32 32" fill="none" xmlns="http://www.w3.org/2000/svg">
<g clip-path="url(#clip0_60_2673)">
<path d="M35.2008 -3.19922H-3.19922V35.2008H35.2008V-3.19922Z" fill="white"/>
<path d="M35.2008 -3.19922H-3.19922V35.2008H35.2008V-3.19922Z" fill="#F89880"/>
<g filter="url(#filter0_d_60_2673)">
<path d="M17.5713 21.8838C17.7654 21.8838 17.9313 21.8149 18.0697 21.6765C18.2077 21.5384 18.2805 21.3722 18.288 21.1782V14.9038C18.288 14.7246 18.2168 14.5735 18.0752 14.4506C17.9332 14.3271 17.7654 14.2654 17.5713 14.2654H17.4368L17.4258 14.1529H19.7003C19.9318 14.1529 20.1837 14.1306 20.4566 14.0857C20.7292 14.041 20.9213 13.9961 21.0332 13.9512V15.3635H20.9219V15.1617C20.9219 14.9826 20.8601 14.8293 20.7367 14.702C20.6132 14.5749 20.4657 14.5077 20.2945 14.5002H19.0167V17.9621H21.1457C21.2948 17.955 21.4216 17.899 21.5261 17.7946C21.6311 17.6904 21.6837 17.5594 21.6837 17.4021V17.2455H21.7951V19.0162H21.6837V18.8475C21.6837 18.6984 21.633 18.5716 21.5316 18.4671C21.4307 18.3621 21.3058 18.3059 21.1567 18.2984H19.0167V21.649H21.4037C21.9563 21.649 22.3783 21.526 22.6694 21.2796C22.9604 21.0327 23.2033 20.6666 23.3981 20.1815H23.5095L22.8601 21.9963H17.4258V21.8838H17.5713Z" fill="white"/>
</g>
<mask id="mask0_60_2673" style="mask-type:luminance" maskUnits="userSpaceOnUse" x="7" y="7" width="18" height="18">
<path d="M7.97266 7.56836H24.0485V24.3862H7.97266V7.56836Z" fill="white"/>
</mask>
<g mask="url(#mask0_60_2673)">
<g filter="url(#filter1_di_60_2673)">
<path d="M24.0489 22.3149C24.023 22.281 23.9751 22.2741 23.9403 22.2992C22.7135 23.1859 21.345 23.7369 19.8378 23.9378C19.3403 24.004 18.8318 24.0346 18.331 24.0169C17.4661 23.9866 16.6201 23.8248 15.8222 23.4695C15.3192 23.2454 14.9082 22.8979 14.5573 22.48C14.3093 22.1851 14.0786 21.8755 13.8377 21.5745C13.3545 20.9712 12.8214 20.4232 12.1274 20.0569C12.1095 20.0476 12.0918 20.031 12.0733 20.0305C12.0334 20.0288 11.9763 20.0205 11.957 20.0423C11.9358 20.0666 11.9333 20.1297 11.9501 20.1608C12.0587 20.3596 12.1698 20.5566 12.2894 20.7488C12.728 21.4541 13.3134 22.031 13.9151 22.593C14.0262 22.6966 14.1395 22.7975 14.2519 22.9001C14.239 22.9171 14.2437 22.9111 14.2304 22.9282C13.962 22.7603 13.6833 22.6065 13.4275 22.421C13.0885 22.1751 12.7484 21.9252 12.4438 21.6396C12.0535 21.2733 11.7743 20.8201 11.5689 20.3237C11.408 19.9343 11.2768 19.5382 11.2431 19.1151C11.2252 18.8861 11.2114 18.6567 11.1922 18.4277C11.1599 18.0374 11.1481 17.643 11.0182 17.2681C10.8529 16.791 10.5687 16.385 10.2415 16.0071C10.1732 15.928 10.0987 15.8525 10.0188 15.7855C9.98682 15.759 9.93197 15.7604 9.8876 15.7491C9.88071 15.7921 9.85976 15.8384 9.86996 15.8767C10.0805 16.6736 10.3038 17.4671 10.5045 18.2664C10.5849 18.5889 10.6164 18.9238 10.6566 19.2601C10.6346 19.2237 10.6097 19.189 10.5907 19.1512C10.43 18.8312 10.2641 18.5142 10.1649 18.1664C10.1169 17.9982 10.0566 17.8312 9.98104 17.6736C9.76494 17.2235 9.63292 16.7502 9.57448 16.2571C9.5064 15.6802 9.44328 15.1016 9.4623 14.5187C9.49896 13.4186 9.73986 12.3619 10.1643 11.3481C10.5957 10.3175 11.1941 9.39335 11.9686 8.58768C12.2724 8.27153 12.5904 7.98102 12.9223 7.71614C12.9551 7.68995 12.9612 7.64254 12.9358 7.60919C12.9096 7.57419 12.8597 7.56785 12.8258 7.59486C12.4523 7.89226 12.0984 8.22164 11.7657 8.5841C10.4763 9.98788 9.68859 11.6361 9.40276 13.5217C9.36666 13.7591 9.34378 13.9989 9.31401 14.2439C9.22691 13.9983 9.14147 13.7604 9.05823 13.522C8.91049 13.0992 8.72637 12.694 8.48409 12.3161C8.46783 12.2905 8.45625 12.2569 8.43282 12.2417C8.39478 12.2175 8.34875 12.205 8.30603 12.1877C8.29363 12.2323 8.27351 12.277 8.27213 12.3222C8.27103 12.3569 8.29638 12.3917 8.3052 12.4278C8.38045 12.7389 8.47802 13.0477 8.52323 13.3632C8.58166 13.7742 8.59875 14.1907 8.63293 14.605C8.69632 15.3712 8.89643 16.1022 9.21699 16.7987C9.4951 17.4034 9.78865 18.0007 10.0748 18.6016C10.1759 18.8149 10.2751 19.0286 10.3752 19.2422C10.3719 19.2463 10.3683 19.2504 10.365 19.2543C10.3457 19.2311 10.3253 19.2091 10.3071 19.1851C9.97387 18.738 9.63677 18.2934 9.30822 17.8428C8.97967 17.3927 8.62494 16.9685 8.17731 16.6303C8.12853 16.5936 8.07671 16.5468 8.01634 16.603C7.96039 16.6551 8.00063 16.7083 8.0293 16.7582C8.13156 16.9368 8.23767 17.114 8.3358 17.2948C8.60647 17.794 8.86721 18.2987 9.1445 18.794C9.56208 19.5387 10.1117 20.1675 10.8586 20.5952C11.4433 20.9296 11.9485 21.3554 12.4173 21.8312C12.427 21.8411 12.4341 21.8529 12.4584 21.8849C12.4038 21.8593 12.3738 21.8455 12.344 21.8312C11.6274 21.483 10.9344 21.0828 10.1674 20.8452C9.84487 20.7452 9.52487 20.6363 9.20155 20.539C9.16186 20.5269 9.10812 20.5608 9.06071 20.5735C9.08386 20.617 9.10508 20.6619 9.13072 20.7038C9.13871 20.7171 9.15773 20.7237 9.17206 20.7322C9.96615 21.1983 10.7321 21.7063 11.47 22.257C12.1671 22.7771 12.9606 23.0547 13.8189 23.1608C13.9862 23.1815 14.159 23.1889 14.3178 23.2388C14.6527 23.3446 14.9799 23.4742 15.3101 23.5941C15.3365 23.6037 15.3616 23.6164 15.3947 23.631C15.0824 23.5966 14.7811 23.5539 14.4788 23.5329C14.1822 23.5125 13.8815 23.4858 13.5879 23.5144C13.2194 23.5503 12.855 23.6341 12.4912 23.7079C12.2528 23.7562 12.0174 23.8201 11.7828 23.8843C11.7478 23.894 11.723 23.943 11.6935 23.9736C11.7225 24.0009 11.7476 24.0406 11.7817 24.053C11.8316 24.0701 11.8884 24.074 11.9419 24.0718C12.2423 24.0583 12.5433 24.05 12.8426 24.023C13.3305 23.9797 13.8184 23.9902 14.2996 24.0632C15.0717 24.1801 15.8437 24.2934 16.6232 24.3424C17.1166 24.3733 17.6102 24.3537 18.1 24.2785C18.3131 24.2457 18.5253 24.1864 18.7392 24.1806C19.4591 24.1613 20.1689 24.0748 20.866 23.8959C22.0313 23.5963 23.0897 23.1095 24.0324 22.4262C24.0679 22.4001 24.0751 22.3502 24.0489 22.3149ZM9.52266 17.0694C9.20844 16.4076 8.94467 15.7287 8.85095 14.9964C8.81181 14.6918 8.7961 14.3845 8.76633 14.0788C8.73023 13.707 8.69026 13.3357 8.65167 12.9617C8.68089 13.0286 8.71176 13.0956 8.73932 13.1637C8.95679 13.7031 9.16903 14.2447 9.26605 14.8216C9.2994 15.0206 9.30629 15.2246 9.31704 15.4266C9.34709 15.985 9.42399 16.5358 9.56098 17.0782C9.56401 17.0906 9.56346 17.1041 9.56649 17.1388C9.54471 17.1041 9.53148 17.0878 9.52266 17.0694ZM11.2103 20.6256C10.9535 20.4505 10.6911 20.2832 10.4422 20.0977C10.0494 19.8053 9.7473 19.4282 9.48132 19.0208C9.07587 18.4004 8.74098 17.7411 8.41628 17.0763C8.42676 17.0683 8.43723 17.0603 8.44743 17.052C8.63954 17.2819 8.84075 17.5051 9.02212 17.7438C9.36611 18.1953 9.69218 18.66 10.0375 19.1107C10.4383 19.6333 10.852 20.1462 11.2732 20.6589C11.252 20.6476 11.2299 20.6388 11.2103 20.6256ZM10.7848 18.9481C10.6999 18.154 10.4714 17.3932 10.2297 16.6358C10.1765 16.4693 10.1354 16.299 10.0885 16.13C10.0957 16.1262 10.1034 16.122 10.1109 16.1182C10.1315 16.1372 10.1558 16.1543 10.1729 16.1761C10.5353 16.6355 10.8727 17.1104 10.9535 17.7108C10.9951 18.0186 11.0251 18.3287 11.0417 18.6391C11.0701 19.1782 11.126 19.7105 11.3493 20.211C11.3581 20.2314 11.3625 20.254 11.3694 20.2758C11.0921 19.8684 10.8388 19.4544 10.7848 18.9481ZM14.0295 23.0376C13.814 22.9987 13.5979 22.9632 13.3829 22.9205C12.6323 22.7711 11.9741 22.4293 11.3597 21.9789C10.8559 21.6093 10.3267 21.2744 9.80904 20.9241C9.79526 20.915 9.78176 20.905 9.76825 20.8954C9.77321 20.8882 9.77762 20.8808 9.78231 20.8736C10.2159 21.0429 10.6555 21.1986 11.0819 21.3846C11.4344 21.5382 11.7707 21.7289 12.1158 21.9006C12.465 22.0743 12.7988 22.2719 13.0962 22.5257C13.3327 22.7281 13.6232 22.8259 13.8994 22.9516C13.9443 22.9723 13.9909 22.9902 14.0367 23.0095C14.0342 23.0189 14.032 23.0282 14.0295 23.0376ZM12.2445 20.3086C12.3421 20.3736 12.425 20.4221 12.5006 20.48C12.9749 20.8444 13.3898 21.2664 13.7577 21.7391C14.0689 22.1388 14.3925 22.5293 14.7301 22.9064C14.8771 23.0701 15.0728 23.19 15.2541 23.3358C14.5113 23.1015 12.5813 21.1746 12.2445 20.3086ZM15.7723 24.0952C15.2175 24.0153 14.6618 23.9373 14.1047 23.875C13.688 23.8284 13.2685 23.816 12.8492 23.859C12.7486 23.8694 12.6472 23.8717 12.5427 23.8631C12.758 23.8179 12.9733 23.7719 13.1888 23.728C13.6282 23.6385 14.0706 23.6531 14.5121 23.7005C15.1202 23.765 15.7279 23.8325 16.334 23.9133C16.6246 23.9519 16.9101 24.0274 17.1995 24.0792C17.342 24.1051 17.4876 24.1153 17.6317 24.1335C17.6739 24.1387 17.7152 24.1462 17.7571 24.1525C17.0912 24.2145 16.4308 24.19 15.7723 24.0952Z" fill="white"/>
</g>
</g>
<g filter="url(#filter2_d_60_2673)">
<path d="M15.124 19.9867H15.2695V20.0992H12.8164V19.9867H12.9619C13.156 19.9867 13.3219 19.9178 13.4603 19.7795C13.5984 19.6414 13.6711 19.4752 13.6786 19.2811V13.0629C13.6711 12.8683 13.5984 12.704 13.4603 12.5701C13.3219 12.4356 13.156 12.3683 12.9619 12.3683H12.8164V12.2559H15.2695V12.3683H15.124C14.9299 12.3683 14.7637 12.4356 14.6256 12.5701C14.4873 12.704 14.4145 12.8683 14.4073 13.0629V19.2811C14.4073 19.4752 14.4782 19.6414 14.6201 19.7795C14.7618 19.9178 14.9299 19.9867 15.124 19.9867ZM22.889 21.7794V21.8919C22.6051 21.9594 22.3215 21.9933 22.0379 21.9933C20.8124 21.9933 19.6247 21.3806 18.4745 20.1554L14.7657 16.1996L17.4106 12.8832C17.4701 12.8082 17.4999 12.741 17.4999 12.6814C17.4999 12.6219 17.4883 12.5698 17.4657 12.5249C17.4062 12.4124 17.2982 12.3562 17.1416 12.3562H17.0291V12.2559H19.3929V12.3562H19.3488C18.8555 12.3562 18.4519 12.532 18.1383 12.8832L15.5275 15.8975L19.3378 19.9647C19.8301 20.4953 20.3844 20.9305 21.0004 21.2701C21.617 21.6096 22.2465 21.7794 22.889 21.7794Z" fill="white"/>
</g>
<path d="M13.1026 15.8125H23.0484C23.1234 15.8125 23.195 15.8423 23.248 15.8952C23.3009 15.9481 23.3306 16.02 23.3306 16.095V16.6595C23.3306 16.7345 23.3009 16.8064 23.248 16.8593C23.195 16.9123 23.1234 16.942 23.0484 16.942H13.1026C13.0279 16.942 12.9559 16.9123 12.903 16.8593C12.8501 16.8064 12.8203 16.7345 12.8203 16.6595V16.095C12.8203 16.02 12.8501 15.9481 12.903 15.8952C12.9559 15.8423 13.0279 15.8125 13.1026 15.8125Z" fill="white"/>
<g filter="url(#filter3_d_60_2673)">
<path d="M13.4219 16.5895V16.0879H13.5134V16.3117L13.7218 16.0879H13.8342L13.5972 16.3382C13.617 16.3486 13.6341 16.3652 13.649 16.3878L13.7052 16.4749C13.7146 16.4903 13.7242 16.5011 13.7339 16.5068C13.7433 16.5121 13.7551 16.5146 13.7692 16.5146C13.786 16.5146 13.8011 16.5107 13.8144 16.5024L13.8353 16.573C13.8265 16.5804 13.8149 16.586 13.8011 16.5895C13.7871 16.5939 13.7725 16.5962 13.757 16.5962C13.7041 16.5962 13.6625 16.5727 13.6325 16.5256L13.5597 16.4142C13.5531 16.4049 13.5465 16.3974 13.5398 16.3922C13.5332 16.3864 13.5244 16.3823 13.5134 16.3801V16.5895H13.4219Z" fill="black"/>
</g>
<g filter="url(#filter4_d_60_2673)">
<path d="M14.4384 16.5965C14.42 16.5965 14.4054 16.591 14.3943 16.5799C14.3839 16.5684 14.3789 16.5543 14.3789 16.5381C14.3789 16.5212 14.3839 16.5072 14.3943 16.4962C14.4054 16.4846 14.42 16.4785 14.4384 16.4785C14.4566 16.4785 14.4715 16.4846 14.4825 16.4962C14.4936 16.5072 14.4991 16.5212 14.4991 16.5381C14.4991 16.5543 14.4936 16.5684 14.4825 16.5799C14.4715 16.591 14.4566 16.5965 14.4384 16.5965Z" fill="black"/>
</g>
<g filter="url(#filter5_d_60_2673)">
<path d="M15.4324 16.1673H15.1987V16.2963H15.4203V16.3756H15.1987V16.5102H15.4401L15.4346 16.5895H15.1094V16.0879H15.4324V16.1673Z" fill="black"/>
</g>
<g filter="url(#filter6_d_60_2673)">
<path d="M16.0791 16.5965C16.0606 16.5965 16.046 16.591 16.035 16.5799C16.0245 16.5684 16.0195 16.5543 16.0195 16.5381C16.0195 16.5212 16.0245 16.5072 16.035 16.4962C16.046 16.4846 16.0606 16.4785 16.0791 16.4785C16.0973 16.4785 16.1121 16.4846 16.1232 16.4962C16.1342 16.5072 16.1397 16.5212 16.1397 16.5381C16.1397 16.5543 16.1342 16.5684 16.1232 16.5799C16.1121 16.591 16.0973 16.5965 16.0791 16.5965Z" fill="black"/>
</g>
<g filter="url(#filter7_d_60_2673)">
<path d="M17.4609 16.5895V16.0879H17.6274C17.6914 16.0879 17.7402 16.0997 17.7741 16.1232C17.8085 16.146 17.8259 16.18 17.8259 16.2246C17.8259 16.2489 17.8198 16.2706 17.8082 16.2897C17.7964 16.3089 17.7796 16.3238 17.7575 16.3349C17.7801 16.3437 17.7986 16.358 17.8126 16.3779C17.8264 16.3977 17.8336 16.4206 17.8336 16.4462C17.8336 16.4898 17.8171 16.5245 17.784 16.5509C17.7515 16.5769 17.7071 16.5895 17.6506 16.5895H17.4609ZM17.6285 16.1629H17.5502V16.2996H17.6274C17.6633 16.2996 17.6897 16.2941 17.7068 16.283C17.7244 16.2715 17.7333 16.2533 17.7333 16.229C17.7333 16.2064 17.7247 16.1899 17.7079 16.1794C17.6916 16.1684 17.6652 16.1629 17.6285 16.1629ZM17.5502 16.5146H17.6484C17.677 16.5146 17.6996 16.5091 17.7167 16.498C17.7335 16.4865 17.7421 16.4683 17.7421 16.444C17.7421 16.3985 17.7101 16.3756 17.6462 16.3756H17.5502V16.5146Z" fill="black"/>
</g>
<g filter="url(#filter8_d_60_2673)">
<path d="M18.7684 16.1673H18.5346V16.2963H18.7562V16.3756H18.5346V16.5102H18.7761L18.7706 16.5895H18.4453V16.0879H18.7684V16.1673Z" fill="black"/>
</g>
<g filter="url(#filter9_d_60_2673)">
<path d="M19.3242 16.5895L19.5381 16.0879H19.6153L19.8215 16.5895H19.7277L19.6825 16.4749H19.4642L19.4168 16.5895H19.3242ZM19.4951 16.3977H19.6528L19.5756 16.2003L19.4951 16.3977Z" fill="black"/>
</g>
<g filter="url(#filter10_d_60_2673)">
<path d="M20.7414 16.0879H20.8329L20.834 16.3547C20.834 16.4049 20.8255 16.4479 20.8087 16.4837C20.7924 16.5198 20.7682 16.5476 20.7359 16.5675C20.7042 16.5868 20.6659 16.5962 20.6212 16.5962C20.5499 16.5962 20.4961 16.5782 20.4603 16.5421C20.4242 16.5063 20.4062 16.4512 20.4062 16.3768V16.0879H20.4978V16.3701C20.4978 16.4203 20.508 16.4567 20.5286 16.4793C20.549 16.5022 20.5796 16.5135 20.6201 16.5135C20.6612 16.5135 20.6921 16.5002 20.7128 16.4738C20.7331 16.4473 20.7431 16.4062 20.7425 16.3503L20.7414 16.0879Z" fill="black"/>
</g>
<g filter="url(#filter11_d_60_2673)">
<path d="M21.8341 16.0879L21.8231 16.1684H21.6676V16.5895H21.575V16.1684H21.4141V16.0879H21.8341Z" fill="black"/>
</g>
<g filter="url(#filter12_d_60_2673)">
<path d="M22.7925 16.0879L22.6172 16.3646V16.5895H22.5246V16.3668L22.3438 16.0879H22.4485L22.5742 16.2852L22.6966 16.0879H22.7925Z" fill="black"/>
</g>
</g>
<defs>
<filter id="filter0_d_60_2673" x="14.1182" y="13.9512" width="12.6972" height="14.66" filterUnits="userSpaceOnUse" color-interpolation-filters="sRGB">
<feFlood flood-opacity="0" result="BackgroundImageFix"/>
<feColorMatrix in="SourceAlpha" type="matrix" values="0 0 0 0 0 0 0 0 0 0 0 0 0 0 0 0 0 0 127 0" result="hardAlpha"/>
<feOffset dy="3.30756"/>
<feGaussianBlur stdDeviation="1.65378"/>
<feComposite in2="hardAlpha" operator="out"/>
<feColorMatrix type="matrix" values="0 0 0 0 0 0 0 0 0 0 0 0 0 0 0 0 0 0 0.25 0"/>
<feBlend mode="normal" in2="BackgroundImageFix" result="effect1_dropShadow_60_2673"/>
<feBlend mode="normal" in="SourceGraphic" in2="effect1_dropShadow_60_2673" result="shape"/>
</filter>
<filter id="filter1_di_60_2673" x="4.68072" y="5.92434" width="22.6933" height="23.3944" filterUnits="userSpaceOnUse" color-interpolation-filters="sRGB">
<feFlood flood-opacity="0" result="BackgroundImageFix"/>
<feColorMatrix in="SourceAlpha" type="matrix" values="0 0 0 0 0 0 0 0 0 0 0 0 0 0 0 0 0 0 127 0" result="hardAlpha"/>
<feOffset dy="1.65378"/>
<feGaussianBlur stdDeviation="1.65378"/>
<feComposite in2="hardAlpha" operator="out"/>
<feColorMatrix type="matrix" values="0 0 0 0 0 0 0 0 0 0 0 0 0 0 0 0 0 0 0.25 0"/>
<feBlend mode="normal" in2="BackgroundImageFix" result="effect1_dropShadow_60_2673"/>
<feBlend mode="normal" in="SourceGraphic" in2="effect1_dropShadow_60_2673" result="shape"/>
<feColorMatrix in="SourceAlpha" type="matrix" values="0 0 0 0 0 0 0 0 0 0 0 0 0 0 0 0 0 0 127 0" result="hardAlpha"/>
<feOffset dy="0.826891"/>
<feGaussianBlur stdDeviation="1.65378"/>
<feComposite in2="hardAlpha" operator="arithmetic" k2="-1" k3="1"/>
<feColorMatrix type="matrix" values="0 0 0 0 1 0 0 0 0 1 0 0 0 0 1 0 0 0 1 0"/>
<feBlend mode="normal" in2="shape" result="effect2_innerShadow_60_2673"/>
</filter>
<filter id="filter2_d_60_2673" x="9.50884" y="12.2559" width="16.6893" height="16.3534" filterUnits="userSpaceOnUse" color-interpolation-filters="sRGB">
<feFlood flood-opacity="0" result="BackgroundImageFix"/>
<feColorMatrix in="SourceAlpha" type="matrix" values="0 0 0 0 0 0 0 0 0 0 0 0 0 0 0 0 0 0 127 0" result="hardAlpha"/>
<feOffset dy="3.30756"/>
<feGaussianBlur stdDeviation="1.65378"/>
<feComposite in2="hardAlpha" operator="out"/>
<feColorMatrix type="matrix" values="0 0 0 0 0 0 0 0 0 0 0 0 0 0 0 0 0 0 0.25 0"/>
<feBlend mode="normal" in2="BackgroundImageFix" result="effect1_dropShadow_60_2673"/>
<feBlend mode="normal" in="SourceGraphic" in2="effect1_dropShadow_60_2673" result="shape"/>
</filter>
<filter id="filter3_d_60_2673" x="11.7681" y="15.261" width="3.72163" height="3.81538" filterUnits="userSpaceOnUse" color-interpolation-filters="sRGB">
<feFlood flood-opacity="0" result="BackgroundImageFix"/>
<feColorMatrix in="SourceAlpha" type="matrix" values="0 0 0 0 0 0 0 0 0 0 0 0 0 0 0 0 0 0 127 0" result="hardAlpha"/>
<feOffset dy="0.826891"/>
<feGaussianBlur stdDeviation="0.826891"/>
<feComposite in2="hardAlpha" operator="out"/>
<feColorMatrix type="matrix" values="0 0 0 0 0 0 0 0 0 0 0 0 0 0 0 0 0 0 0.25 0"/>
<feBlend mode="normal" in2="BackgroundImageFix" result="effect1_dropShadow_60_2673"/>
<feBlend mode="normal" in="SourceGraphic" in2="effect1_dropShadow_60_2673" result="shape"/>
</filter>
<filter id="filter4_d_60_2673" x="12.7251" y="15.6516" width="3.42866" height="3.42475" filterUnits="userSpaceOnUse" color-interpolation-filters="sRGB">
<feFlood flood-opacity="0" result="BackgroundImageFix"/>
<feColorMatrix in="SourceAlpha" type="matrix" values="0 0 0 0 0 0 0 0 0 0 0 0 0 0 0 0 0 0 127 0" result="hardAlpha"/>
<feOffset dy="0.826891"/>
<feGaussianBlur stdDeviation="0.826891"/>
<feComposite in2="hardAlpha" operator="out"/>
<feColorMatrix type="matrix" values="0 0 0 0 0 0 0 0 0 0 0 0 0 0 0 0 0 0 0.25 0"/>
<feBlend mode="normal" in2="BackgroundImageFix" result="effect1_dropShadow_60_2673"/>
<feBlend mode="normal" in="SourceGraphic" in2="effect1_dropShadow_60_2673" result="shape"/>
</filter>
<filter id="filter5_d_60_2673" x="13.4556" y="15.261" width="3.63959" height="3.80952" filterUnits="userSpaceOnUse" color-interpolation-filters="sRGB">
<feFlood flood-opacity="0" result="BackgroundImageFix"/>
<feColorMatrix in="SourceAlpha" type="matrix" values="0 0 0 0 0 0 0 0 0 0 0 0 0 0 0 0 0 0 127 0" result="hardAlpha"/>
<feOffset dy="0.826891"/>
<feGaussianBlur stdDeviation="0.826891"/>
<feComposite in2="hardAlpha" operator="out"/>
<feColorMatrix type="matrix" values="0 0 0 0 0 0 0 0 0 0 0 0 0 0 0 0 0 0 0.25 0"/>
<feBlend mode="normal" in2="BackgroundImageFix" result="effect1_dropShadow_60_2673"/>
<feBlend mode="normal" in="SourceGraphic" in2="effect1_dropShadow_60_2673" result="shape"/>
</filter>
<filter id="filter6_d_60_2673" x="14.3657" y="15.6516" width="3.42866" height="3.42475" filterUnits="userSpaceOnUse" color-interpolation-filters="sRGB">
<feFlood flood-opacity="0" result="BackgroundImageFix"/>
<feColorMatrix in="SourceAlpha" type="matrix" values="0 0 0 0 0 0 0 0 0 0 0 0 0 0 0 0 0 0 127 0" result="hardAlpha"/>
<feOffset dy="0.826891"/>
<feGaussianBlur stdDeviation="0.826891"/>
<feComposite in2="hardAlpha" operator="out"/>
<feColorMatrix type="matrix" values="0 0 0 0 0 0 0 0 0 0 0 0 0 0 0 0 0 0 0.25 0"/>
<feBlend mode="normal" in2="BackgroundImageFix" result="effect1_dropShadow_60_2673"/>
<feBlend mode="normal" in="SourceGraphic" in2="effect1_dropShadow_60_2673" result="shape"/>
</filter>
<filter id="filter7_d_60_2673" x="15.8072" y="15.261" width="3.67866" height="3.80952" filterUnits="userSpaceOnUse" color-interpolation-filters="sRGB">
<feFlood flood-opacity="0" result="BackgroundImageFix"/>
<feColorMatrix in="SourceAlpha" type="matrix" values="0 0 0 0 0 0 0 0 0 0 0 0 0 0 0 0 0 0 127 0" result="hardAlpha"/>
<feOffset dy="0.826891"/>
<feGaussianBlur stdDeviation="0.826891"/>
<feComposite in2="hardAlpha" operator="out"/>
<feColorMatrix type="matrix" values="0 0 0 0 0 0 0 0 0 0 0 0 0 0 0 0 0 0 0.25 0"/>
<feBlend mode="normal" in2="BackgroundImageFix" result="effect1_dropShadow_60_2673"/>
<feBlend mode="normal" in="SourceGraphic" in2="effect1_dropShadow_60_2673" result="shape"/>
</filter>
<filter id="filter8_d_60_2673" x="16.7915" y="15.261" width="3.63959" height="3.80952" filterUnits="userSpaceOnUse" color-interpolation-filters="sRGB">
<feFlood flood-opacity="0" result="BackgroundImageFix"/>
<feColorMatrix in="SourceAlpha" type="matrix" values="0 0 0 0 0 0 0 0 0 0 0 0 0 0 0 0 0 0 127 0" result="hardAlpha"/>
<feOffset dy="0.826891"/>
<feGaussianBlur stdDeviation="0.826891"/>
<feComposite in2="hardAlpha" operator="out"/>
<feColorMatrix type="matrix" values="0 0 0 0 0 0 0 0 0 0 0 0 0 0 0 0 0 0 0.25 0"/>
<feBlend mode="normal" in2="BackgroundImageFix" result="effect1_dropShadow_60_2673"/>
<feBlend mode="normal" in="SourceGraphic" in2="effect1_dropShadow_60_2673" result="shape"/>
</filter>
<filter id="filter9_d_60_2673" x="17.6704" y="15.261" width="3.80366" height="3.80952" filterUnits="userSpaceOnUse" color-interpolation-filters="sRGB">
<feFlood flood-opacity="0" result="BackgroundImageFix"/>
<feColorMatrix in="SourceAlpha" type="matrix" values="0 0 0 0 0 0 0 0 0 0 0 0 0 0 0 0 0 0 127 0" result="hardAlpha"/>
<feOffset dy="0.826891"/>
<feGaussianBlur stdDeviation="0.826891"/>
<feComposite in2="hardAlpha" operator="out"/>
<feColorMatrix type="matrix" values="0 0 0 0 0 0 0 0 0 0 0 0 0 0 0 0 0 0 0.25 0"/>
<feBlend mode="normal" in2="BackgroundImageFix" result="effect1_dropShadow_60_2673"/>
<feBlend mode="normal" in="SourceGraphic" in2="effect1_dropShadow_60_2673" result="shape"/>
</filter>
<filter id="filter10_d_60_2673" x="18.7525" y="15.261" width="3.73725" height="3.81538" filterUnits="userSpaceOnUse" color-interpolation-filters="sRGB">
<feFlood flood-opacity="0" result="BackgroundImageFix"/>
<feColorMatrix in="SourceAlpha" type="matrix" values="0 0 0 0 0 0 0 0 0 0 0 0 0 0 0 0 0 0 127 0" result="hardAlpha"/>
<feOffset dy="0.826891"/>
<feGaussianBlur stdDeviation="0.826891"/>
<feComposite in2="hardAlpha" operator="out"/>
<feColorMatrix type="matrix" values="0 0 0 0 0 0 0 0 0 0 0 0 0 0 0 0 0 0 0.25 0"/>
<feBlend mode="normal" in2="BackgroundImageFix" result="effect1_dropShadow_60_2673"/>
<feBlend mode="normal" in="SourceGraphic" in2="effect1_dropShadow_60_2673" result="shape"/>
</filter>
<filter id="filter11_d_60_2673" x="19.7603" y="15.261" width="3.72944" height="3.80952" filterUnits="userSpaceOnUse" color-interpolation-filters="sRGB">
<feFlood flood-opacity="0" result="BackgroundImageFix"/>
<feColorMatrix in="SourceAlpha" type="matrix" values="0 0 0 0 0 0 0 0 0 0 0 0 0 0 0 0 0 0 127 0" result="hardAlpha"/>
<feOffset dy="0.826891"/>
<feGaussianBlur stdDeviation="0.826891"/>
<feComposite in2="hardAlpha" operator="out"/>
<feColorMatrix type="matrix" values="0 0 0 0 0 0 0 0 0 0 0 0 0 0 0 0 0 0 0.25 0"/>
<feBlend mode="normal" in2="BackgroundImageFix" result="effect1_dropShadow_60_2673"/>
<feBlend mode="normal" in="SourceGraphic" in2="effect1_dropShadow_60_2673" result="shape"/>
</filter>
<filter id="filter12_d_60_2673" x="20.69" y="15.261" width="3.75678" height="3.80952" filterUnits="userSpaceOnUse" color-interpolation-filters="sRGB">
<feFlood flood-opacity="0" result="BackgroundImageFix"/>
<feColorMatrix in="SourceAlpha" type="matrix" values="0 0 0 0 0 0 0 0 0 0 0 0 0 0 0 0 0 0 127 0" result="hardAlpha"/>
<feOffset dy="0.826891"/>
<feGaussianBlur stdDeviation="0.826891"/>
<feComposite in2="hardAlpha" operator="out"/>
<feColorMatrix type="matrix" values="0 0 0 0 0 0 0 0 0 0 0 0 0 0 0 0 0 0 0.25 0"/>
<feBlend mode="normal" in2="BackgroundImageFix" result="effect1_dropShadow_60_2673"/>
<feBlend mode="normal" in="SourceGraphic" in2="effect1_dropShadow_60_2673" result="shape"/>
</filter>
<clipPath id="clip0_60_2673">
<rect width="32" height="32" fill="white"/>
</clipPath>
</defs>
</svg>
