<svg width="30" height="30" viewBox="0 0 30 30" fill="none" xmlns="http://www.w3.org/2000/svg">
<g clip-path="url(#clip0_159_2647)">
<path fill-rule="evenodd" clip-rule="evenodd" d="M30 12.1132C29.3066 22.1627 24.1968 28.2209 15.6128 30C15.896 17.5464 22.4487 13.9975 30 12.1132ZM9.24316 13.8274C9.80713 8.09096 10.5664 3.75619 15.0684 0C18.291 3.2302 19.9927 5.17017 20.7886 13.8923C18.4155 14.6132 16.2988 17.8589 15.0415 22.8187C13.8281 17.9394 11.875 14.9969 9.24316 13.8274ZM22.395 13.1869L21.5283 8.03218C22.9907 6.44183 25.5322 5.5755 28.0322 4.74319C28.0908 6.63985 27.8662 8.72525 27.7051 10.7797C25.7642 11.1912 24.0137 12.0266 22.395 13.1869ZM7.66846 13.1869L8.53516 8.03218C7.07275 6.44183 4.53125 5.5755 2.03125 4.74319C1.97266 6.63985 2.19727 8.72525 2.3584 10.7797C4.29932 11.1912 6.05225 12.0266 7.66846 13.1869ZM0 12.1132C0.693359 22.1627 5.80322 28.2209 14.3872 30C14.104 17.5464 7.55127 13.9975 0 12.1132Z" fill="white"/>
</g>
<defs>
<clipPath id="clip0_159_2647">
<rect width="30" height="30" fill="white"/>
</clipPath>
</defs>
</svg>
