<svg xmlns="http://www.w3.org/2000/svg" xmlns:xlink="http://www.w3.org/1999/xlink" width="500" zoomAndPan="magnify" viewBox="0 0 375 374.999991" height="500" preserveAspectRatio="xMidYMid meet" version="1.0"><defs><g/><clipPath id="1bfcbadb6d"><path d="M 37 62.65625 L 264.828125 62.65625 L 264.828125 301 L 37 301 Z M 37 62.65625 " clip-rule="nonzero"/></clipPath></defs><rect x="-37.5" width="450" fill="#ffffff" y="-37.499999" height="449.999989" fill-opacity="1"/><rect x="-37.5" width="450" fill="#f89880" y="-37.499999" height="449.999989" fill-opacity="1"/><g fill="#ffffff" fill-opacity="1"><g transform="translate(161.424999, 267.133319)"><g><path d="M 11.59375 -1.59375 C 14.34375 -1.59375 16.695312 -2.570312 18.65625 -4.53125 C 20.613281 -6.488281 21.644531 -8.84375 21.75 -11.59375 L 21.75 -100.515625 C 21.75 -103.054688 20.742188 -105.195312 18.734375 -106.9375 C 16.722656 -108.6875 14.34375 -109.5625 11.59375 -109.5625 L 9.6875 -109.5625 L 9.53125 -111.15625 L 41.765625 -111.15625 C 45.046875 -111.15625 48.617188 -111.472656 52.484375 -112.109375 C 56.347656 -112.742188 59.070312 -113.378906 60.65625 -114.015625 L 60.65625 -94 L 59.078125 -94 L 59.078125 -96.859375 C 59.078125 -99.398438 58.203125 -101.570312 56.453125 -103.375 C 54.703125 -105.175781 52.613281 -106.128906 50.1875 -106.234375 L 32.078125 -106.234375 L 32.078125 -57.171875 L 62.25 -57.171875 C 64.363281 -57.273438 66.160156 -58.066406 67.640625 -59.546875 C 69.128906 -61.023438 69.875 -62.878906 69.875 -65.109375 L 69.875 -67.328125 L 71.453125 -67.328125 L 71.453125 -42.234375 L 69.875 -42.234375 L 69.875 -44.625 C 69.875 -46.738281 69.15625 -48.535156 67.71875 -50.015625 C 66.289062 -51.503906 64.519531 -52.300781 62.40625 -52.40625 L 32.078125 -52.40625 L 32.078125 -4.921875 L 65.90625 -4.921875 C 73.738281 -4.921875 79.71875 -6.664062 83.84375 -10.15625 C 87.96875 -13.65625 91.410156 -18.84375 94.171875 -25.71875 L 95.75 -25.71875 L 86.546875 0 L 9.53125 0 L 9.53125 -1.59375 Z M 11.59375 -1.59375 "/></g></g></g><g clip-path="url(#1bfcbadb6d)"><path fill="#ffffff" d="M 264.824219 271.65625 C 264.457031 271.175781 263.777344 271.078125 263.285156 271.433594 C 245.898438 284 226.503906 291.808594 205.144531 294.65625 C 198.09375 295.59375 190.886719 296.027344 183.789062 295.777344 C 171.53125 295.347656 159.542969 293.054688 148.234375 288.019531 C 141.105469 284.84375 135.28125 279.917969 130.308594 273.996094 C 126.792969 269.816406 123.523438 265.429688 120.109375 261.164062 C 113.261719 252.613281 105.707031 244.847656 95.871094 239.65625 C 95.617188 239.523438 95.367188 239.289062 95.105469 239.28125 C 94.539062 239.257812 93.730469 239.140625 93.457031 239.449219 C 93.15625 239.792969 93.121094 240.6875 93.359375 241.128906 C 94.898438 243.945312 96.472656 246.738281 98.167969 249.460938 C 104.382812 259.457031 112.679688 267.632812 121.207031 275.597656 C 122.78125 277.066406 124.386719 278.496094 125.980469 279.949219 C 125.796875 280.191406 125.863281 280.105469 125.675781 280.347656 C 121.871094 277.96875 117.921875 275.789062 114.296875 273.160156 C 109.492188 269.675781 104.671875 266.132812 100.355469 262.085938 C 94.824219 256.894531 90.867188 250.472656 87.957031 243.4375 C 85.675781 237.917969 83.816406 232.304688 83.339844 226.308594 C 83.085938 223.0625 82.890625 219.8125 82.617188 216.566406 C 82.160156 211.035156 81.992188 205.445312 80.152344 200.132812 C 77.808594 193.371094 73.78125 187.617188 69.144531 182.261719 C 68.175781 181.140625 67.121094 180.070312 65.988281 179.121094 C 65.535156 178.746094 64.757812 178.765625 64.128906 178.605469 C 64.03125 179.214844 63.734375 179.871094 63.878906 180.414062 C 66.863281 191.707031 70.027344 202.953125 72.871094 214.28125 C 74.011719 218.851562 74.457031 223.597656 75.027344 228.363281 C 74.714844 227.847656 74.363281 227.355469 74.09375 226.820312 C 71.816406 222.285156 69.464844 217.792969 68.058594 212.863281 C 67.378906 210.480469 66.523438 208.113281 65.453125 205.878906 C 62.390625 199.5 60.519531 192.792969 59.691406 185.804688 C 58.726562 177.628906 57.832031 169.429688 58.101562 161.167969 C 58.621094 145.578125 62.035156 130.601562 68.050781 116.234375 C 74.164062 101.628906 82.644531 88.53125 93.621094 77.113281 C 97.925781 72.632812 102.433594 68.515625 107.136719 64.761719 C 107.601562 64.390625 107.6875 63.71875 107.328125 63.246094 C 106.957031 62.75 106.25 62.660156 105.769531 63.042969 C 100.476562 67.257812 95.460938 71.925781 90.746094 77.0625 C 72.472656 96.957031 61.308594 120.316406 57.257812 147.039062 C 56.746094 150.402344 56.421875 153.800781 56 157.273438 C 54.765625 153.792969 53.554688 150.421875 52.375 147.042969 C 50.28125 141.050781 47.671875 135.308594 44.238281 129.953125 C 44.007812 129.589844 43.84375 129.113281 43.511719 128.898438 C 42.972656 128.554688 42.320312 128.378906 41.714844 128.132812 C 41.539062 128.765625 41.253906 129.398438 41.234375 130.039062 C 41.21875 130.53125 41.578125 131.023438 41.703125 131.535156 C 42.769531 135.945312 44.152344 140.320312 44.792969 144.792969 C 45.621094 150.617188 45.863281 156.519531 46.347656 162.390625 C 47.246094 173.25 50.082031 183.609375 54.625 193.480469 C 58.566406 202.050781 62.726562 210.515625 66.78125 219.03125 C 68.214844 222.054688 69.621094 225.082031 71.039062 228.109375 C 70.992188 228.167969 70.941406 228.226562 70.894531 228.28125 C 70.621094 227.953125 70.332031 227.640625 70.074219 227.300781 C 65.351562 220.964844 60.574219 214.664062 55.917969 208.277344 C 51.261719 201.898438 46.234375 195.886719 39.890625 191.09375 C 39.199219 190.574219 38.464844 189.910156 37.609375 190.707031 C 36.816406 191.445312 37.386719 192.199219 37.792969 192.90625 C 39.242188 195.4375 40.746094 197.949219 42.136719 200.511719 C 45.972656 207.585938 49.667969 214.738281 53.597656 221.757812 C 59.515625 232.3125 67.304688 241.222656 77.890625 247.285156 C 86.175781 252.023438 93.335938 258.058594 99.980469 264.800781 C 100.117188 264.941406 100.21875 265.109375 100.5625 265.5625 C 99.789062 265.199219 99.363281 265.003906 98.941406 264.800781 C 88.785156 259.867188 78.964844 254.195312 68.09375 250.828125 C 63.523438 249.410156 58.988281 247.867188 54.40625 246.488281 C 53.84375 246.316406 53.082031 246.796875 52.410156 246.976562 C 52.738281 247.59375 53.039062 248.230469 53.402344 248.824219 C 53.515625 249.011719 53.785156 249.105469 53.988281 249.226562 C 65.242188 255.832031 76.097656 263.03125 86.554688 270.835938 C 96.433594 278.207031 107.679688 282.140625 119.84375 283.644531 C 122.214844 283.9375 124.664062 284.042969 126.914062 284.75 C 131.660156 286.25 136.296875 288.085938 140.976562 289.785156 C 141.351562 289.921875 141.707031 290.101562 142.175781 290.308594 C 137.75 289.820312 133.480469 289.214844 129.195312 288.917969 C 124.992188 288.628906 120.730469 288.25 116.570312 288.65625 C 111.347656 289.164062 106.183594 290.351562 101.027344 291.398438 C 97.648438 292.082031 94.3125 292.988281 90.988281 293.898438 C 90.492188 294.035156 90.140625 294.730469 89.722656 295.164062 C 90.132812 295.550781 90.488281 296.113281 90.972656 296.289062 C 91.679688 296.53125 92.484375 296.585938 93.242188 296.554688 C 97.5 296.363281 101.765625 296.246094 106.007812 295.863281 C 112.921875 295.25 119.835938 295.398438 126.65625 296.433594 C 137.597656 298.089844 148.539062 299.695312 159.585938 300.390625 C 166.578125 300.828125 173.574219 300.550781 180.515625 299.484375 C 183.535156 299.019531 186.542969 298.179688 189.574219 298.097656 C 199.777344 297.824219 209.835938 296.597656 219.714844 294.0625 C 236.230469 289.816406 251.230469 282.917969 264.589844 273.234375 C 265.09375 272.863281 265.195312 272.15625 264.824219 271.65625 Z M 58.957031 197.316406 C 54.503906 187.9375 50.765625 178.316406 49.4375 167.9375 C 48.882812 163.621094 48.660156 159.265625 48.238281 154.933594 C 47.726562 149.664062 47.160156 144.402344 46.613281 139.101562 C 47.027344 140.050781 47.464844 141 47.855469 141.964844 C 50.9375 149.609375 53.945312 157.285156 55.320312 165.460938 C 55.792969 168.28125 55.890625 171.171875 56.042969 174.035156 C 56.46875 181.949219 57.558594 189.753906 59.5 197.441406 C 59.542969 197.617188 59.535156 197.808594 59.578125 198.300781 C 59.269531 197.808594 59.082031 197.578125 58.957031 197.316406 Z M 82.875 247.714844 C 79.234375 245.234375 75.515625 242.863281 71.988281 240.234375 C 66.421875 236.089844 62.140625 230.746094 58.371094 224.972656 C 52.625 216.179688 47.878906 206.835938 43.277344 197.414062 C 43.425781 197.300781 43.574219 197.1875 43.71875 197.070312 C 46.441406 200.328125 49.292969 203.492188 51.863281 206.875 C 56.738281 213.273438 61.359375 219.859375 66.253906 226.246094 C 71.933594 233.652344 77.796875 240.921875 83.765625 248.1875 C 83.464844 248.027344 83.152344 247.902344 82.875 247.714844 Z M 76.84375 223.941406 C 75.640625 212.6875 72.402344 201.90625 68.976562 191.171875 C 68.222656 188.8125 67.640625 186.398438 66.976562 184.003906 C 67.078125 183.949219 67.1875 183.890625 67.292969 183.835938 C 67.585938 184.105469 67.929688 184.347656 68.171875 184.65625 C 73.308594 191.167969 78.089844 197.898438 79.234375 206.40625 C 79.824219 210.769531 80.25 215.164062 80.484375 219.5625 C 80.886719 227.203125 81.679688 234.746094 84.84375 241.839844 C 84.96875 242.128906 85.03125 242.449219 85.128906 242.757812 C 81.199219 236.984375 77.609375 231.117188 76.84375 223.941406 Z M 122.828125 281.898438 C 119.773438 281.347656 116.710938 280.84375 113.664062 280.238281 C 103.027344 278.121094 93.699219 273.277344 84.992188 266.894531 C 77.851562 261.65625 70.351562 256.910156 63.015625 251.945312 C 62.820312 251.816406 62.628906 251.675781 62.4375 251.539062 C 62.507812 251.4375 62.570312 251.332031 62.636719 251.230469 C 68.78125 253.628906 75.011719 255.835938 81.054688 258.472656 C 86.050781 260.648438 90.816406 263.351562 95.707031 265.785156 C 100.65625 268.246094 105.386719 271.046875 109.601562 274.644531 C 112.953125 277.511719 117.070312 278.898438 120.984375 280.679688 C 121.621094 280.972656 122.28125 281.226562 122.929688 281.5 C 122.894531 281.632812 122.863281 281.765625 122.828125 281.898438 Z M 97.53125 243.222656 C 98.914062 244.144531 100.089844 244.832031 101.160156 245.652344 C 107.882812 250.816406 113.761719 256.796875 118.976562 263.496094 C 123.386719 269.160156 127.972656 274.695312 132.757812 280.039062 C 134.839844 282.359375 137.613281 284.058594 140.183594 286.125 C 129.65625 282.804688 102.304688 255.496094 97.53125 243.222656 Z M 147.527344 296.886719 C 139.664062 295.753906 131.789062 294.648438 123.894531 293.765625 C 117.988281 293.105469 112.042969 292.929688 106.101562 293.539062 C 104.675781 293.6875 103.238281 293.71875 101.757812 293.597656 C 104.808594 292.957031 107.859375 292.304688 110.914062 291.683594 C 117.140625 290.414062 123.410156 290.621094 129.667969 291.292969 C 138.285156 292.207031 146.898438 293.164062 155.488281 294.308594 C 159.605469 294.855469 163.652344 295.925781 167.753906 296.660156 C 169.773438 297.027344 171.835938 297.171875 173.878906 297.429688 C 174.476562 297.503906 175.0625 297.609375 175.65625 297.699219 C 166.21875 298.578125 156.859375 298.230469 147.527344 296.886719 Z M 147.527344 296.886719 " fill-opacity="1" fill-rule="nonzero"/></g><g fill="#ffffff" fill-opacity="1"><g transform="translate(97.892173, 235.499985)"><g><path d="M 42.234375 -1.59375 L 44.296875 -1.59375 L 44.296875 0 L 9.53125 0 L 9.53125 -1.59375 L 11.59375 -1.59375 C 14.34375 -1.59375 16.695312 -2.570312 18.65625 -4.53125 C 20.613281 -6.488281 21.644531 -8.84375 21.75 -11.59375 L 21.75 -99.71875 C 21.644531 -102.476562 20.613281 -104.804688 18.65625 -106.703125 C 16.695312 -108.609375 14.34375 -109.5625 11.59375 -109.5625 L 9.53125 -109.5625 L 9.53125 -111.15625 L 44.296875 -111.15625 L 44.296875 -109.5625 L 42.234375 -109.5625 C 39.484375 -109.5625 37.128906 -108.609375 35.171875 -106.703125 C 33.210938 -104.804688 32.179688 -102.476562 32.078125 -99.71875 L 32.078125 -11.59375 C 32.078125 -8.84375 33.082031 -6.488281 35.09375 -4.53125 C 37.101562 -2.570312 39.484375 -1.59375 42.234375 -1.59375 Z M 152.28125 23.8125 L 152.28125 25.40625 C 148.257812 26.363281 144.238281 26.84375 140.21875 26.84375 C 122.851562 26.84375 106.019531 18.160156 89.71875 0.796875 L 37.15625 -55.265625 L 74.640625 -102.265625 C 75.484375 -103.328125 75.90625 -104.28125 75.90625 -105.125 C 75.90625 -105.96875 75.742188 -106.707031 75.421875 -107.34375 C 74.578125 -108.9375 73.046875 -109.734375 70.828125 -109.734375 L 69.234375 -109.734375 L 69.234375 -111.15625 L 102.734375 -111.15625 L 102.734375 -109.734375 L 102.109375 -109.734375 C 95.117188 -109.734375 89.398438 -107.242188 84.953125 -102.265625 L 47.953125 -59.546875 L 101.953125 -1.90625 C 108.929688 5.613281 116.785156 11.78125 125.515625 16.59375 C 134.253906 21.40625 143.175781 23.8125 152.28125 23.8125 Z M 152.28125 23.8125 "/></g></g></g><path fill="#ffffff" d="M 109.675781 179.496094 L 250.628906 179.496094 C 251.691406 179.496094 252.707031 179.917969 253.457031 180.667969 C 254.207031 181.417969 254.628906 182.4375 254.628906 183.5 L 254.628906 191.5 C 254.628906 192.5625 254.207031 193.582031 253.457031 194.332031 C 252.707031 195.082031 251.691406 195.503906 250.628906 195.503906 L 109.675781 195.503906 C 108.617188 195.503906 107.597656 195.082031 106.847656 194.332031 C 106.097656 193.582031 105.675781 192.5625 105.675781 191.5 L 105.675781 183.5 C 105.675781 182.4375 106.097656 181.417969 106.847656 180.667969 C 107.597656 179.917969 108.617188 179.496094 109.675781 179.496094 Z M 109.675781 179.496094 " fill-opacity="1" fill-rule="nonzero"/><g fill="#000000" fill-opacity="1"><g transform="translate(113.49385, 190.499987)"><g><path d="M 0.734375 0 L 0.734375 -7.109375 L 2.03125 -7.109375 L 2.03125 -3.9375 L 4.984375 -7.109375 L 6.578125 -7.109375 L 3.21875 -3.5625 C 3.5 -3.414062 3.742188 -3.179688 3.953125 -2.859375 L 4.75 -1.625 C 4.882812 -1.40625 5.019531 -1.253906 5.15625 -1.171875 C 5.289062 -1.097656 5.457031 -1.0625 5.65625 -1.0625 C 5.894531 -1.0625 6.109375 -1.117188 6.296875 -1.234375 L 6.59375 -0.234375 C 6.46875 -0.128906 6.304688 -0.0507812 6.109375 0 C 5.910156 0.0625 5.703125 0.09375 5.484375 0.09375 C 4.734375 0.09375 4.144531 -0.238281 3.71875 -0.90625 L 2.6875 -2.484375 C 2.59375 -2.617188 2.5 -2.722656 2.40625 -2.796875 C 2.3125 -2.878906 2.1875 -2.9375 2.03125 -2.96875 L 2.03125 0 Z M 0.734375 0 "/></g></g></g><g fill="#000000" fill-opacity="1"><g transform="translate(127.421337, 190.499987)"><g><path d="M 1.1875 0.09375 C 0.925781 0.09375 0.71875 0.015625 0.5625 -0.140625 C 0.414062 -0.304688 0.34375 -0.503906 0.34375 -0.734375 C 0.34375 -0.972656 0.414062 -1.171875 0.5625 -1.328125 C 0.71875 -1.492188 0.925781 -1.578125 1.1875 -1.578125 C 1.445312 -1.578125 1.65625 -1.492188 1.8125 -1.328125 C 1.96875 -1.171875 2.046875 -0.972656 2.046875 -0.734375 C 2.046875 -0.503906 1.96875 -0.304688 1.8125 -0.140625 C 1.65625 0.015625 1.445312 0.09375 1.1875 0.09375 Z M 1.1875 0.09375 "/></g></g></g><g fill="#000000" fill-opacity="1"><g transform="translate(137.415742, 190.499987)"><g><path d="M 5.3125 -5.984375 L 2 -5.984375 L 2 -4.15625 L 5.140625 -4.15625 L 5.140625 -3.03125 L 2 -3.03125 L 2 -1.125 L 5.421875 -1.125 L 5.34375 0 L 0.734375 0 L 0.734375 -7.109375 L 5.3125 -7.109375 Z M 5.3125 -5.984375 "/></g></g></g><g fill="#000000" fill-opacity="1"><g transform="translate(150.692724, 190.499987)"><g><path d="M 1.1875 0.09375 C 0.925781 0.09375 0.71875 0.015625 0.5625 -0.140625 C 0.414062 -0.304688 0.34375 -0.503906 0.34375 -0.734375 C 0.34375 -0.972656 0.414062 -1.171875 0.5625 -1.328125 C 0.71875 -1.492188 0.925781 -1.578125 1.1875 -1.578125 C 1.445312 -1.578125 1.65625 -1.492188 1.8125 -1.328125 C 1.96875 -1.171875 2.046875 -0.972656 2.046875 -0.734375 C 2.046875 -0.503906 1.96875 -0.304688 1.8125 -0.140625 C 1.65625 0.015625 1.445312 0.09375 1.1875 0.09375 Z M 1.1875 0.09375 "/></g></g></g><g fill="#000000" fill-opacity="1"><g transform="translate(160.687129, 190.499987)"><g/></g></g><g fill="#000000" fill-opacity="1"><g transform="translate(170.741582, 190.499987)"><g><path d="M 0.734375 0 L 0.734375 -7.109375 L 3.09375 -7.109375 C 4 -7.109375 4.691406 -6.941406 5.171875 -6.609375 C 5.660156 -6.285156 5.90625 -5.804688 5.90625 -5.171875 C 5.90625 -4.828125 5.820312 -4.519531 5.65625 -4.25 C 5.488281 -3.976562 5.25 -3.765625 4.9375 -3.609375 C 5.257812 -3.484375 5.519531 -3.28125 5.71875 -3 C 5.914062 -2.71875 6.015625 -2.394531 6.015625 -2.03125 C 6.015625 -1.414062 5.78125 -0.921875 5.3125 -0.546875 C 4.851562 -0.179688 4.222656 0 3.421875 0 Z M 3.109375 -6.046875 L 2 -6.046875 L 2 -4.109375 L 3.09375 -4.109375 C 3.601562 -4.109375 3.976562 -4.1875 4.21875 -4.34375 C 4.46875 -4.507812 4.59375 -4.765625 4.59375 -5.109375 C 4.59375 -5.429688 4.472656 -5.664062 4.234375 -5.8125 C 4.003906 -5.96875 3.628906 -6.046875 3.109375 -6.046875 Z M 2 -1.0625 L 3.390625 -1.0625 C 3.796875 -1.0625 4.117188 -1.140625 4.359375 -1.296875 C 4.597656 -1.460938 4.71875 -1.71875 4.71875 -2.0625 C 4.71875 -2.707031 4.265625 -3.03125 3.359375 -3.03125 L 2 -3.03125 Z M 2 -1.0625 "/></g></g></g><g fill="#000000" fill-opacity="1"><g transform="translate(184.699098, 190.499987)"><g><path d="M 5.3125 -5.984375 L 2 -5.984375 L 2 -4.15625 L 5.140625 -4.15625 L 5.140625 -3.03125 L 2 -3.03125 L 2 -1.125 L 5.421875 -1.125 L 5.34375 0 L 0.734375 0 L 0.734375 -7.109375 L 5.3125 -7.109375 Z M 5.3125 -5.984375 "/></g></g></g><g fill="#000000" fill-opacity="1"><g transform="translate(197.97608, 190.499987)"><g><path d="M -0.09375 0 L 2.9375 -7.109375 L 4.03125 -7.109375 L 6.953125 0 L 5.625 0 L 4.984375 -1.625 L 1.890625 -1.625 L 1.21875 0 Z M 2.328125 -2.71875 L 4.5625 -2.71875 L 3.46875 -5.515625 Z M 2.328125 -2.71875 "/></g></g></g><g fill="#000000" fill-opacity="1"><g transform="translate(212.484023, 190.499987)"><g><path d="M 5.453125 -7.109375 L 6.75 -7.109375 L 6.765625 -3.328125 C 6.765625 -2.617188 6.644531 -2.007812 6.40625 -1.5 C 6.175781 -0.988281 5.832031 -0.59375 5.375 -0.3125 C 4.925781 -0.0390625 4.382812 0.09375 3.75 0.09375 C 2.738281 0.09375 1.976562 -0.160156 1.46875 -0.671875 C 0.957031 -1.179688 0.703125 -1.960938 0.703125 -3.015625 L 0.703125 -7.109375 L 2 -7.109375 L 2 -3.109375 C 2 -2.398438 2.144531 -1.882812 2.4375 -1.5625 C 2.726562 -1.238281 3.160156 -1.078125 3.734375 -1.078125 C 4.316406 -1.078125 4.753906 -1.265625 5.046875 -1.640625 C 5.335938 -2.015625 5.476562 -2.597656 5.46875 -3.390625 Z M 5.453125 -7.109375 "/></g></g></g><g fill="#000000" fill-opacity="1"><g transform="translate(227.562414, 190.499987)"><g><path d="M 5.890625 -7.109375 L 5.734375 -5.96875 L 3.53125 -5.96875 L 3.53125 0 L 2.21875 0 L 2.21875 -5.96875 L -0.0625 -5.96875 L -0.0625 -7.109375 Z M 5.890625 -7.109375 "/></g></g></g><g fill="#000000" fill-opacity="1"><g transform="translate(240.929455, 190.499987)"><g><path d="M 6.09375 -7.109375 L 3.609375 -3.1875 L 3.609375 0 L 2.296875 0 L 2.296875 -3.15625 L -0.265625 -7.109375 L 1.21875 -7.109375 L 3 -4.3125 L 4.734375 -7.109375 Z M 6.09375 -7.109375 "/></g></g></g></svg>