<svg width="30" height="30" viewBox="0 0 30 30" fill="none" xmlns="http://www.w3.org/2000/svg">
<g clip-path="url(#clip0_174_2664)">
<g clip-path="url(#clip1_174_2664)">
<path fill-rule="evenodd" clip-rule="evenodd" d="M29.1843 11.7084C28.3472 12.2748 27.5421 12.6752 27.3075 13.664C27.0222 14.8603 28.4379 16.6132 28.3392 18.7348C28.1473 22.7973 25.2467 25.2167 20.0641 25.2192C17.5634 25.2216 14.8682 24.8286 12.9273 25.4706C10.8026 26.1738 9.46693 27.8754 8.17394 29.9995C6.3451 29.8481 5.73459 28.9277 5.98519 27.1821C3.28458 30.1899 -0.51974 25.3657 2.53545 22.9511C0.639951 22.082 -0.391774 20.7197 0.138751 18.4687C3.48986 22.3115 8.30991 21.9428 13.8764 19.4282C9.03504 18.7153 5.64128 16.4692 5.06544 11.2372C3.41254 7.9682 3.19927 4.77484 4.88948 1.67914C5.05744 1.36908 5.47066 0.529238 5.90788 0.546327C6.05717 0.55121 6.19314 0.658632 6.31577 0.8808C6.82763 2.331 7.74206 3.69818 9.21366 4.88226C13.8924 8.64203 18.3792 7.53363 22.4821 13.957C22.5141 13.7592 22.5434 13.5566 22.5728 13.3564C21.2425 11.3642 19.6376 9.67963 17.5874 8.58344C15.6333 7.53607 13.4739 6.96478 11.4851 5.78803C10.0481 4.93842 8.7098 4.02289 7.74739 2.74359C8.09663 2.46039 8.49919 2.12348 8.78445 1.7768C9.19234 1.27875 9.3363 0.783144 9.79484 0.304628C9.99479 0.0971086 10.2241 -0.0640242 10.432 0.021425C10.608 0.0946672 10.7573 0.324159 10.8799 0.705019C12.9567 5.67816 17.99 6.04682 20.3307 7.94379C21.3544 8.77387 22.2502 10.0483 22.8794 11.5693C22.9487 11.2861 23.0313 11.0078 23.138 10.7392C23.6392 9.47943 24.7722 8.31244 26.3691 8.50775C26.7663 8.55658 27.1582 8.6933 27.5181 8.92035C27.6834 9.02289 27.838 9.1474 27.9873 9.29144C28.2086 9.50873 28.4112 9.7724 28.5898 10.0898L29.1017 10.4951L29.3923 10.727C30.4107 11.4838 30.0135 11.1469 29.1843 11.7084ZM26.9743 9.9018C27.1849 9.9018 27.3582 10.058 27.3582 10.2534C27.3582 10.4462 27.1875 10.6049 26.9743 10.6049C26.761 10.6049 26.5904 10.4487 26.5904 10.2534C26.5904 10.058 26.7637 9.9018 26.9743 9.9018Z" fill="#F89880"/>
</g>
</g>
<defs>
<clipPath id="clip0_174_2664">
<rect width="30" height="30" fill="white"/>
</clipPath>
<clipPath id="clip1_174_2664">
<rect width="30" height="30" fill="white"/>
</clipPath>
</defs>
</svg>
