<svg width="30" height="30" viewBox="0 0 30 30" fill="none" xmlns="http://www.w3.org/2000/svg">
<g clip-path="url(#clip0_159_2641)">
<path fill-rule="evenodd" clip-rule="evenodd" d="M0 17.1796H5.83496L5.60059 27.6564H0V17.1796ZM19.0112 6.50782V6.75848C19.4336 6.11538 19.9292 5.60648 20.498 5.20138C21.4136 4.5507 22.5098 4.17851 23.8086 3.94052C24.0161 3.90254 24.2163 4.04686 24.2529 4.2646C24.2896 4.4798 24.1504 4.68742 23.9404 4.72539C22.7441 4.94313 21.7432 5.27987 20.9302 5.85967C20.2734 6.32806 19.729 6.95849 19.2871 7.82439C22.4048 8.14847 24.248 7.83199 25.5884 6.82177C26.9165 5.81916 27.8125 4.08737 28.9844 1.59348C28.6401 1.61374 28.2813 1.63146 27.915 1.64919C25.5542 1.76312 22.9663 1.88718 21.3501 3.36072C20.9375 3.73797 20.5322 4.18864 20.1392 4.72033C19.7607 5.23177 19.3848 5.82675 19.0112 6.50782ZM17.8516 4.47221C17.7197 4.28991 17.5732 4.1456 17.4121 4.0266C17.0947 3.79873 16.7041 3.66455 16.2378 3.55821C16.0303 3.51263 15.8984 3.29996 15.9448 3.08475C15.9888 2.86954 16.1938 2.73282 16.4014 2.78093C16.9556 2.90752 17.4316 3.07462 17.8442 3.36832C17.8149 3.27211 17.7808 3.1759 17.7441 3.08222C17.5488 2.58344 17.2607 2.12771 16.8652 1.76818C16.4063 1.35043 15.8203 1.27447 15.2832 1.20358L15.271 1.20105L12.4561 1.02128L13.1836 2.58091C13.6938 3.52782 14.3823 4.05445 15.2295 4.31017C15.9741 4.53297 16.8555 4.55829 17.8516 4.47221ZM18.1519 5.41912C16.9629 5.53812 15.8984 5.5204 14.9707 5.24189C13.8818 4.91528 13.0029 4.24181 12.3584 3.03664C12.3535 3.02905 12.3486 3.01892 12.3462 3.01133L11.2671 0.697206C11.1548 0.456679 11.2524 0.165515 11.4844 0.0490499C11.5576 0.011072 11.6382 -0.00411916 11.7163 0.000944559L15.332 0.231344C15.3516 0.231344 15.3711 0.233876 15.3906 0.238939L15.4028 0.241471C16.0791 0.330086 16.8164 0.426297 17.4854 1.03648C17.9956 1.50234 18.3667 2.08466 18.6133 2.71763C18.8843 3.41136 19.0063 4.16332 19.0063 4.88743C19.0063 4.9406 18.999 4.99377 18.9819 5.04188C19.165 4.75831 19.3481 4.48993 19.5361 4.23675C19.9683 3.65442 20.4028 3.16577 20.8447 2.7632C22.6611 1.10737 25.3906 0.97571 27.8833 0.854181C28.4595 0.826331 29.021 0.79848 29.5874 0.750375C29.6533 0.745311 29.7217 0.755439 29.7852 0.788353C29.9756 0.884563 30.0562 1.12003 29.9634 1.31751C28.5938 4.2494 27.627 6.2597 26.0376 7.45727C24.4897 8.62699 22.417 8.97385 18.9209 8.57888V11.764C20.3833 9.65239 21.8115 9.61695 24.1431 9.55871C24.6436 9.54605 25.188 9.5334 25.8081 9.49289C25.8716 9.48782 25.9351 9.50048 25.9961 9.53086C26.1865 9.62707 26.2671 9.86254 26.1743 10.06C25.2197 12.1032 24.6045 13.3692 23.5522 14.0857C22.5439 14.7718 21.2158 14.8984 18.9209 14.6402V16.8302L22.8906 21.1065L25.2661 19.9571C27.4634 19.2659 28.96 21.6686 27.3169 23.2738C24.1064 25.5778 20.8276 27.459 17.4805 28.9629C15.0415 30.4212 12.6392 30.3124 10.2686 28.7882L6.76025 26.8032L6.95557 18.1088L10.7275 18.1999C12.124 18.4936 13.5107 19.2532 14.895 20.1647L18.1567 16.8327V14.7617C15.0098 15.1161 13.0981 14.8174 11.6528 13.7743C10.1685 12.7033 9.24072 10.8955 7.99561 8.22696C7.90283 8.02947 7.9834 7.79148 8.17383 7.6978C8.23731 7.66741 8.30322 7.65476 8.36914 7.65982C8.88184 7.70033 9.40186 7.72312 9.93897 7.7459C12.2437 7.83958 14.8413 7.94592 16.4795 9.44225C17.2461 10.141 17.7856 10.7234 18.1567 11.3665V5.41912H18.1519ZM17.3096 14.0452C16.7847 13.3312 16.2329 12.7944 15.6445 12.3767C14.9219 11.8627 14.1333 11.5184 13.269 11.2348C13.0664 11.169 12.9541 10.9462 13.0176 10.736C13.0811 10.5259 13.2959 10.4094 13.4985 10.4752C14.4263 10.7791 15.2783 11.1513 16.0742 11.7184C16.7651 12.2096 17.4097 12.8451 18.0127 13.6958C17.9688 12.997 17.8394 12.4526 17.5977 11.9665C17.2827 11.331 16.7578 10.7588 15.9668 10.0347C14.5288 8.7232 12.0776 8.62446 9.90234 8.53584C9.58252 8.52318 9.26758 8.51052 8.96484 8.4928C10.0171 10.7107 10.8594 12.2374 12.0825 13.121C13.252 13.9616 14.8145 14.2528 17.3096 14.0452ZM19.2285 12.7185C19.5142 12.4552 19.8389 12.2298 20.1831 12.0399C20.9766 11.6019 21.8872 11.3437 22.7295 11.1892C22.937 11.1513 23.1372 11.2956 23.1738 11.5133C23.2105 11.7285 23.0713 11.9361 22.8613 11.9741C22.0874 12.1159 21.2549 12.3514 20.542 12.7438C20.022 13.0299 19.5654 13.4021 19.248 13.8831C21.1987 14.0857 22.3267 13.9768 23.1274 13.4299C23.9111 12.8957 24.4556 11.8931 25.1978 10.3233C24.834 10.3385 24.4849 10.3461 24.1553 10.3562C21.9214 10.4094 20.6128 10.4423 19.2285 12.7185ZM18.5303 17.7062L15.73 20.5672L18.3984 20.6305C19.7217 20.7445 20.3857 22.1547 19.0771 23.0409C18.0322 23.7979 16.6772 23.7194 15.293 23.5574C14.3359 23.4865 14.2651 24.8208 15.2637 24.8486C15.6104 24.8841 15.9888 24.8106 16.3184 24.8182C18.0518 24.8587 19.4873 24.5499 20.3931 23.1497L20.8569 22.0965L22.0654 21.5116L18.5303 17.7062Z" fill="white"/>
</g>
<defs>
<clipPath id="clip0_159_2641">
<rect width="30" height="30" fill="white"/>
</clipPath>
</defs>
</svg>
