<svg width="256" height="256" viewBox="0 0 256 256" fill="none" xmlns="http://www.w3.org/2000/svg">
<g clip-path="url(#clip0_60_2673)">
<path d="M281.598 -25.5996H-25.6016V281.6H281.598V-25.5996Z" fill="white"/>
<path d="M281.598 -25.5996H-25.6016V281.6H281.598V-25.5996Z" fill="#F89880"/>
<g filter="url(#filter0_d_60_2673)">
<path d="M140.567 175.072C142.119 175.072 143.446 174.521 144.553 173.414C145.658 172.31 146.24 170.98 146.3 169.428V119.232C146.3 117.799 145.731 116.59 144.597 115.607C143.462 114.619 142.119 114.125 140.567 114.125H139.491L139.402 113.225H157.598C159.451 113.225 161.466 113.047 163.649 112.687C165.83 112.33 167.367 111.971 168.262 111.611V122.91H167.371V121.296C167.371 119.863 166.877 118.637 165.889 117.618C164.901 116.601 163.722 116.063 162.352 116.004H152.13V143.699H169.162C170.355 143.642 171.369 143.194 172.205 142.358C173.045 141.525 173.466 140.478 173.466 139.218V137.966H174.357V152.131H173.466V150.782C173.466 149.589 173.06 148.574 172.249 147.739C171.442 146.899 170.443 146.449 169.25 146.389H152.13V173.194H171.226C175.647 173.194 179.023 172.21 181.351 170.239C183.68 168.263 185.622 165.335 187.181 161.454H188.072L182.877 175.972H139.402V175.072H140.567Z" fill="white"/>
</g>
<mask id="mask0_60_2673" style="mask-type:luminance" maskUnits="userSpaceOnUse" x="63" y="60" width="130" height="136">
<path d="M63.7852 60.5469H192.392V195.09H63.7852V60.5469Z" fill="white"/>
</mask>
<g mask="url(#mask0_60_2673)">
<g filter="url(#filter1_di_60_2673)">
<path d="M192.391 178.525C192.184 178.254 191.8 178.199 191.523 178.399C181.708 185.493 170.76 189.901 158.703 191.508C154.723 192.037 150.654 192.282 146.648 192.141C139.728 191.899 132.961 190.604 126.578 187.762C122.553 185.969 119.266 183.189 116.459 179.846C114.474 177.486 112.628 175.01 110.701 172.602C106.836 167.775 102.571 163.392 97.019 160.461C96.8756 160.386 96.7345 160.254 96.5868 160.25C96.267 160.236 95.8106 160.17 95.6562 160.344C95.4864 160.538 95.4666 161.043 95.6011 161.293C96.4699 162.882 97.3585 164.459 98.3155 165.996C101.824 171.639 106.507 176.254 111.321 180.75C112.209 181.579 113.116 182.386 114.015 183.206C113.912 183.343 113.949 183.295 113.843 183.431C111.696 182.088 109.466 180.858 107.42 179.374C104.708 177.407 101.987 175.407 99.5503 173.123C96.428 170.192 94.1943 166.567 92.5515 162.596C91.2638 159.48 90.2142 156.311 89.9452 152.927C89.8018 151.094 89.6916 149.26 89.5372 147.427C89.2793 144.305 89.1844 141.15 88.1459 138.151C86.8228 134.334 84.5494 131.086 81.9321 128.063C81.3852 127.43 80.7898 126.826 80.1504 126.29C79.8946 126.078 79.4558 126.089 79.1008 125.999C79.0457 126.343 78.8781 126.713 78.9597 127.02C80.6443 133.394 82.4304 139.743 84.0357 146.137C84.6795 148.717 84.9309 151.396 85.2528 154.087C85.0764 153.795 84.878 153.518 84.7258 153.216C83.4403 150.655 82.1129 148.12 81.3191 145.337C80.9354 143.992 80.4525 142.656 79.8483 141.394C78.1195 137.793 77.0633 134.007 76.5959 130.063C76.0512 125.447 75.5463 120.819 75.6984 116.155C75.9917 107.355 77.9189 98.9009 81.3146 90.7908C84.7655 82.5461 89.5527 75.1526 95.7488 68.7073C98.1788 66.1781 100.723 63.854 103.378 61.7349C103.641 61.5255 103.689 61.1462 103.486 60.8794C103.277 60.5993 102.878 60.5486 102.607 60.7647C99.6187 63.144 96.7874 65.779 94.1259 68.6786C83.8108 79.9089 77.5087 93.0951 75.2221 108.18C74.9333 110.078 74.7502 111.997 74.5121 113.957C73.8153 111.992 73.1317 110.089 72.4658 108.182C71.2839 104.799 69.8109 101.558 67.8727 98.5349C67.7426 98.3298 67.65 98.0608 67.4626 97.9395C67.1583 97.7455 66.79 97.6463 66.4482 97.5073C66.349 97.8646 66.1881 98.2218 66.177 98.5834C66.1682 98.8612 66.3711 99.1391 66.4416 99.4279C67.0436 101.917 67.8242 104.387 68.1858 106.912C68.6533 110.2 68.79 113.531 69.0634 116.846C69.5706 122.976 71.1714 128.823 73.7359 134.395C75.9608 139.233 78.3092 144.012 80.598 148.819C81.4073 150.525 82.2011 152.234 83.0015 153.943C82.975 153.976 82.9464 154.009 82.9199 154.04C82.7656 153.855 82.6024 153.679 82.4569 153.487C79.791 149.91 77.0942 146.353 74.4658 142.748C71.8374 139.147 68.9995 135.754 65.4185 133.048C65.0282 132.755 64.6137 132.38 64.1307 132.83C63.6831 133.247 64.0051 133.672 64.2344 134.071C65.0525 135.5 65.9014 136.918 66.6864 138.365C68.8517 142.358 70.9377 146.395 73.156 150.358C76.4966 156.316 80.8935 161.346 86.8691 164.768C91.546 167.442 95.5879 170.849 99.3387 174.655C99.4158 174.735 99.4732 174.829 99.6672 175.085C99.2306 174.88 98.9903 174.77 98.7521 174.655C93.019 171.87 87.4755 168.668 81.3389 166.768C78.759 165.967 76.1989 165.096 73.6124 164.318C73.2949 164.221 72.8649 164.492 72.4857 164.594C72.6709 164.942 72.8407 165.301 73.0457 165.637C73.1097 165.742 73.2618 165.795 73.3765 165.864C79.7292 169.592 85.857 173.656 91.7599 178.062C97.3365 182.223 103.685 184.443 110.551 185.292C111.89 185.458 113.272 185.517 114.542 185.916C117.222 186.763 119.839 187.799 122.481 188.759C122.692 188.836 122.893 188.937 123.158 189.054C120.659 188.778 118.249 188.437 115.83 188.269C113.458 188.106 111.052 187.892 108.703 188.121C105.755 188.408 102.84 189.078 99.9296 189.669C98.0222 190.055 96.1391 190.567 94.2627 191.081C93.9826 191.158 93.7842 191.55 93.5482 191.795C93.7797 192.013 93.9804 192.331 94.2538 192.43C94.6529 192.567 95.1072 192.598 95.535 192.58C97.9385 192.472 100.346 192.406 102.741 192.19C106.644 191.843 110.547 191.927 114.397 192.512C120.573 193.447 126.75 194.353 132.985 194.745C136.932 194.992 140.882 194.836 144.8 194.234C146.505 193.971 148.202 193.497 149.914 193.451C155.673 193.297 161.351 192.604 166.928 191.173C176.251 188.776 184.718 184.882 192.259 179.416C192.544 179.206 192.601 178.807 192.391 178.525ZM76.1813 136.561C73.6676 131.267 71.5573 125.836 70.8076 119.977C70.4945 117.54 70.3688 115.082 70.1307 112.636C69.8418 109.662 69.5221 106.691 69.2134 103.699C69.4471 104.235 69.6941 104.771 69.9146 105.315C71.6544 109.631 73.3522 113.964 74.1284 118.579C74.3952 120.171 74.4503 121.802 74.5363 123.419C74.7767 127.886 75.3919 132.292 76.4878 136.631C76.5121 136.731 76.5077 136.839 76.5319 137.117C76.3577 136.839 76.2519 136.709 76.1813 136.561ZM89.6828 165.01C87.6277 163.61 85.5285 162.272 83.5373 160.788C80.3951 158.448 77.9784 155.432 75.8505 152.173C72.6069 147.209 69.9278 141.935 67.3303 136.616C67.4141 136.552 67.4978 136.488 67.5794 136.422C69.1163 138.261 70.726 140.047 72.1769 141.957C74.9288 145.568 77.5374 149.286 80.3003 152.891C83.5065 157.072 86.8162 161.176 90.1855 165.277C90.0157 165.187 89.8393 165.116 89.6828 165.01ZM86.2782 151.59C85.599 145.238 83.7711 139.152 81.8372 133.092C81.4117 131.76 81.0831 130.398 80.7083 129.046C80.7656 129.015 80.8273 128.982 80.8869 128.951C81.0522 129.103 81.2463 129.24 81.383 129.414C84.2826 133.09 86.9816 136.889 87.6277 141.692C87.9606 144.155 88.201 146.636 88.3333 149.119C88.5604 153.432 89.008 157.69 90.7941 161.694C90.8647 161.857 90.9 162.038 90.9551 162.212C88.7368 158.953 86.7104 155.641 86.2782 151.59ZM112.236 184.307C110.512 183.996 108.783 183.711 107.063 183.369C101.059 182.174 95.7929 179.44 90.8779 175.837C86.8471 172.88 82.6134 170.201 78.4723 167.398C78.3621 167.326 78.254 167.246 78.146 167.169C78.1857 167.112 78.221 167.052 78.2585 166.995C81.727 168.349 85.244 169.595 88.6552 171.083C91.4755 172.311 94.1656 173.837 96.9263 175.211C99.7201 176.6 102.39 178.181 104.77 180.212C106.662 181.83 108.986 182.613 111.195 183.619C111.555 183.784 111.927 183.927 112.293 184.082C112.273 184.157 112.256 184.232 112.236 184.307ZM97.9561 162.475C98.7367 162.995 99.4004 163.383 100.005 163.846C103.799 166.761 107.118 170.137 110.062 173.919C112.551 177.116 115.14 180.241 117.841 183.257C119.016 184.567 120.582 185.526 122.033 186.692C116.09 184.818 100.651 169.403 97.9561 162.475ZM126.178 192.767C121.74 192.128 117.294 191.504 112.838 191.006C109.504 190.633 106.148 190.534 102.794 190.878C101.989 190.961 101.178 190.979 100.342 190.911C102.064 190.549 103.786 190.181 105.511 189.83C109.025 189.114 112.564 189.23 116.097 189.61C120.961 190.126 125.823 190.666 130.672 191.312C132.996 191.621 135.281 192.225 137.596 192.639C138.736 192.847 139.9 192.928 141.054 193.074C141.391 193.116 141.722 193.175 142.057 193.226C136.73 193.722 131.446 193.526 126.178 192.767Z" fill="white"/>
</g>
</g>
<g filter="url(#filter2_d_60_2673)">
<path d="M121.007 159.898H122.172V160.797H102.547V159.898H103.711C105.263 159.898 106.591 159.347 107.698 158.24C108.803 157.135 109.385 155.805 109.444 154.253V104.507C109.385 102.95 108.803 101.636 107.698 100.565C106.591 99.4885 105.263 98.9504 103.711 98.9504H102.547V98.0508H122.172V98.9504H121.007C119.455 98.9504 118.125 99.4885 117.021 100.565C115.914 101.636 115.332 102.95 115.274 104.507V154.253C115.274 155.805 115.841 157.135 116.977 158.24C118.11 159.347 119.455 159.898 121.007 159.898ZM183.128 174.239V175.139C180.857 175.679 178.588 175.951 176.319 175.951C166.515 175.951 157.014 171.049 147.812 161.247L118.141 129.601L139.301 103.069C139.777 102.47 140.015 101.932 140.015 101.455C140.015 100.979 139.922 100.562 139.742 100.203C139.265 99.3032 138.401 98.8534 137.148 98.8534H136.249V98.0508H155.159V98.8534H154.806C150.859 98.8534 147.631 100.26 145.122 103.069L124.236 127.184L154.718 159.721C158.656 163.966 163.091 167.448 168.019 170.164C172.952 172.881 177.988 174.239 183.128 174.239Z" fill="white"/>
</g>
<path d="M104.809 126.5H184.375C184.975 126.5 185.549 126.738 185.972 127.162C186.395 127.585 186.633 128.16 186.633 128.76V133.276C186.633 133.876 186.395 134.451 185.972 134.875C185.549 135.298 184.975 135.536 184.375 135.536H104.809C104.211 135.536 103.636 135.298 103.212 134.875C102.789 134.451 102.551 133.876 102.551 133.276V128.76C102.551 128.16 102.789 127.585 103.212 127.162C103.636 126.738 104.211 126.5 104.809 126.5Z" fill="white"/>
<g filter="url(#filter3_d_60_2673)">
<path d="M107.383 132.714V128.701H108.115V130.492L109.782 128.701H110.682L108.785 130.703C108.944 130.787 109.081 130.919 109.2 131.1L109.65 131.797C109.725 131.921 109.802 132.007 109.879 132.053C109.954 132.095 110.049 132.115 110.161 132.115C110.296 132.115 110.417 132.084 110.523 132.018L110.69 132.582C110.62 132.642 110.527 132.686 110.417 132.714C110.304 132.75 110.188 132.767 110.064 132.767C109.641 132.767 109.308 132.58 109.067 132.203L108.485 131.312C108.432 131.237 108.379 131.177 108.327 131.136C108.274 131.089 108.203 131.056 108.115 131.039V132.714H107.383Z" fill="black"/>
</g>
<g filter="url(#filter4_d_60_2673)">
<path d="M115.496 132.766C115.348 132.766 115.231 132.722 115.143 132.634C115.059 132.541 115.02 132.429 115.02 132.299C115.02 132.164 115.059 132.052 115.143 131.963C115.231 131.871 115.348 131.822 115.496 131.822C115.641 131.822 115.76 131.871 115.849 131.963C115.937 132.052 115.981 132.164 115.981 132.299C115.981 132.429 115.937 132.541 115.849 132.634C115.76 132.722 115.641 132.766 115.496 132.766Z" fill="black"/>
</g>
<g filter="url(#filter5_d_60_2673)">
<path d="M123.467 129.336H121.597V130.368H123.37V131.003H121.597V132.079H123.529L123.485 132.714H120.883V128.701H123.467V129.336Z" fill="black"/>
</g>
<g filter="url(#filter6_d_60_2673)">
<path d="M128.636 132.766C128.489 132.766 128.372 132.722 128.284 132.634C128.2 132.541 128.16 132.429 128.16 132.299C128.16 132.164 128.2 132.052 128.284 131.963C128.372 131.871 128.489 131.822 128.636 131.822C128.782 131.822 128.901 131.871 128.989 131.963C129.077 132.052 129.122 132.164 129.122 132.299C129.122 132.429 129.077 132.541 128.989 132.634C128.901 132.722 128.782 132.766 128.636 132.766Z" fill="black"/>
</g>
<g filter="url(#filter7_d_60_2673)">
<path d="M139.695 132.714V128.701H141.027C141.539 128.701 141.929 128.796 142.2 128.983C142.476 129.166 142.615 129.438 142.615 129.795C142.615 129.989 142.566 130.163 142.474 130.315C142.379 130.47 142.244 130.589 142.068 130.677C142.249 130.747 142.396 130.862 142.509 131.021C142.619 131.18 142.677 131.363 142.677 131.568C142.677 131.916 142.544 132.194 142.28 132.406C142.019 132.613 141.664 132.714 141.212 132.714H139.695ZM141.036 129.301H140.41V130.395H141.027C141.314 130.395 141.525 130.351 141.662 130.262C141.803 130.17 141.874 130.024 141.874 129.83C141.874 129.649 141.806 129.517 141.671 129.433C141.541 129.345 141.329 129.301 141.036 129.301ZM140.41 132.115H141.195C141.424 132.115 141.605 132.07 141.742 131.982C141.876 131.89 141.944 131.744 141.944 131.55C141.944 131.186 141.689 131.003 141.177 131.003H140.41V132.115Z" fill="black"/>
</g>
<g filter="url(#filter8_d_60_2673)">
<path d="M150.159 129.336H148.289V130.368H150.062V131.003H148.289V132.079H150.22L150.176 132.714H147.574V128.701H150.159V129.336Z" fill="black"/>
</g>
<g filter="url(#filter9_d_60_2673)">
<path d="M154.602 132.714L156.313 128.701H156.93L158.579 132.714H157.83L157.468 131.797H155.722L155.342 132.714H154.602ZM155.969 131.18H157.23L156.613 129.601L155.969 131.18Z" fill="black"/>
</g>
<g filter="url(#filter10_d_60_2673)">
<path d="M165.924 128.701H166.656L166.664 130.836C166.664 131.237 166.596 131.581 166.462 131.868C166.331 132.156 166.137 132.379 165.879 132.538C165.626 132.692 165.319 132.767 164.962 132.767C164.391 132.767 163.961 132.624 163.674 132.335C163.386 132.048 163.242 131.607 163.242 131.012V128.701H163.974V130.959C163.974 131.36 164.056 131.652 164.221 131.832C164.384 132.015 164.629 132.106 164.953 132.106C165.282 132.106 165.529 132 165.694 131.788C165.857 131.577 165.937 131.248 165.932 130.8L165.924 128.701Z" fill="black"/>
</g>
<g filter="url(#filter11_d_60_2673)">
<path d="M174.685 128.701L174.597 129.345H173.353V132.714H172.612V129.345H171.324V128.701H174.685Z" fill="black"/>
</g>
<g filter="url(#filter12_d_60_2673)">
<path d="M182.344 128.701L180.941 130.915V132.714H180.2V130.933L178.754 128.701H179.592L180.597 130.28L181.576 128.701H182.344Z" fill="black"/>
</g>
</g>
<defs>
<filter id="filter0_d_60_2673" x="136.095" y="111.611" width="55.2831" height="70.9765" filterUnits="userSpaceOnUse" color-interpolation-filters="sRGB">
<feFlood flood-opacity="0" result="BackgroundImageFix"/>
<feColorMatrix in="SourceAlpha" type="matrix" values="0 0 0 0 0 0 0 0 0 0 0 0 0 0 0 0 0 0 127 0" result="hardAlpha"/>
<feOffset dy="3.30756"/>
<feGaussianBlur stdDeviation="1.65378"/>
<feComposite in2="hardAlpha" operator="out"/>
<feColorMatrix type="matrix" values="0 0 0 0 0 0 0 0 0 0 0 0 0 0 0 0 0 0 0.25 0"/>
<feBlend mode="normal" in2="BackgroundImageFix" result="effect1_dropShadow_60_2673"/>
<feBlend mode="normal" in="SourceGraphic" in2="effect1_dropShadow_60_2673" result="shape"/>
</filter>
<filter id="filter1_di_60_2673" x="60.5987" y="58.9771" width="135.225" height="140.842" filterUnits="userSpaceOnUse" color-interpolation-filters="sRGB">
<feFlood flood-opacity="0" result="BackgroundImageFix"/>
<feColorMatrix in="SourceAlpha" type="matrix" values="0 0 0 0 0 0 0 0 0 0 0 0 0 0 0 0 0 0 127 0" result="hardAlpha"/>
<feOffset dy="1.65378"/>
<feGaussianBlur stdDeviation="1.65378"/>
<feComposite in2="hardAlpha" operator="out"/>
<feColorMatrix type="matrix" values="0 0 0 0 0 0 0 0 0 0 0 0 0 0 0 0 0 0 0.25 0"/>
<feBlend mode="normal" in2="BackgroundImageFix" result="effect1_dropShadow_60_2673"/>
<feBlend mode="normal" in="SourceGraphic" in2="effect1_dropShadow_60_2673" result="shape"/>
<feColorMatrix in="SourceAlpha" type="matrix" values="0 0 0 0 0 0 0 0 0 0 0 0 0 0 0 0 0 0 127 0" result="hardAlpha"/>
<feOffset dy="0.826891"/>
<feGaussianBlur stdDeviation="1.65378"/>
<feComposite in2="hardAlpha" operator="arithmetic" k2="-1" k3="1"/>
<feColorMatrix type="matrix" values="0 0 0 0 1 0 0 0 0 1 0 0 0 0 1 0 0 0 1 0"/>
<feBlend mode="normal" in2="shape" result="effect2_innerShadow_60_2673"/>
</filter>
<filter id="filter2_d_60_2673" x="99.2393" y="98.0508" width="87.1972" height="84.5155" filterUnits="userSpaceOnUse" color-interpolation-filters="sRGB">
<feFlood flood-opacity="0" result="BackgroundImageFix"/>
<feColorMatrix in="SourceAlpha" type="matrix" values="0 0 0 0 0 0 0 0 0 0 0 0 0 0 0 0 0 0 127 0" result="hardAlpha"/>
<feOffset dy="3.30756"/>
<feGaussianBlur stdDeviation="1.65378"/>
<feComposite in2="hardAlpha" operator="out"/>
<feColorMatrix type="matrix" values="0 0 0 0 0 0 0 0 0 0 0 0 0 0 0 0 0 0 0.25 0"/>
<feBlend mode="normal" in2="BackgroundImageFix" result="effect1_dropShadow_60_2673"/>
<feBlend mode="normal" in="SourceGraphic" in2="effect1_dropShadow_60_2673" result="shape"/>
</filter>
<filter id="filter3_d_60_2673" x="105.729" y="127.874" width="6.61616" height="7.37397" filterUnits="userSpaceOnUse" color-interpolation-filters="sRGB">
<feFlood flood-opacity="0" result="BackgroundImageFix"/>
<feColorMatrix in="SourceAlpha" type="matrix" values="0 0 0 0 0 0 0 0 0 0 0 0 0 0 0 0 0 0 127 0" result="hardAlpha"/>
<feOffset dy="0.826891"/>
<feGaussianBlur stdDeviation="0.826891"/>
<feComposite in2="hardAlpha" operator="out"/>
<feColorMatrix type="matrix" values="0 0 0 0 0 0 0 0 0 0 0 0 0 0 0 0 0 0 0.25 0"/>
<feBlend mode="normal" in2="BackgroundImageFix" result="effect1_dropShadow_60_2673"/>
<feBlend mode="normal" in="SourceGraphic" in2="effect1_dropShadow_60_2673" result="shape"/>
</filter>
<filter id="filter4_d_60_2673" x="113.366" y="130.995" width="4.2685" height="4.25092" filterUnits="userSpaceOnUse" color-interpolation-filters="sRGB">
<feFlood flood-opacity="0" result="BackgroundImageFix"/>
<feColorMatrix in="SourceAlpha" type="matrix" values="0 0 0 0 0 0 0 0 0 0 0 0 0 0 0 0 0 0 127 0" result="hardAlpha"/>
<feOffset dy="0.826891"/>
<feGaussianBlur stdDeviation="0.826891"/>
<feComposite in2="hardAlpha" operator="out"/>
<feColorMatrix type="matrix" values="0 0 0 0 0 0 0 0 0 0 0 0 0 0 0 0 0 0 0.25 0"/>
<feBlend mode="normal" in2="BackgroundImageFix" result="effect1_dropShadow_60_2673"/>
<feBlend mode="normal" in="SourceGraphic" in2="effect1_dropShadow_60_2673" result="shape"/>
</filter>
<filter id="filter5_d_60_2673" x="119.229" y="127.874" width="5.95209" height="7.32123" filterUnits="userSpaceOnUse" color-interpolation-filters="sRGB">
<feFlood flood-opacity="0" result="BackgroundImageFix"/>
<feColorMatrix in="SourceAlpha" type="matrix" values="0 0 0 0 0 0 0 0 0 0 0 0 0 0 0 0 0 0 127 0" result="hardAlpha"/>
<feOffset dy="0.826891"/>
<feGaussianBlur stdDeviation="0.826891"/>
<feComposite in2="hardAlpha" operator="out"/>
<feColorMatrix type="matrix" values="0 0 0 0 0 0 0 0 0 0 0 0 0 0 0 0 0 0 0.25 0"/>
<feBlend mode="normal" in2="BackgroundImageFix" result="effect1_dropShadow_60_2673"/>
<feBlend mode="normal" in="SourceGraphic" in2="effect1_dropShadow_60_2673" result="shape"/>
</filter>
<filter id="filter6_d_60_2673" x="126.506" y="130.995" width="4.2685" height="4.25092" filterUnits="userSpaceOnUse" color-interpolation-filters="sRGB">
<feFlood flood-opacity="0" result="BackgroundImageFix"/>
<feColorMatrix in="SourceAlpha" type="matrix" values="0 0 0 0 0 0 0 0 0 0 0 0 0 0 0 0 0 0 127 0" result="hardAlpha"/>
<feOffset dy="0.826891"/>
<feGaussianBlur stdDeviation="0.826891"/>
<feComposite in2="hardAlpha" operator="out"/>
<feColorMatrix type="matrix" values="0 0 0 0 0 0 0 0 0 0 0 0 0 0 0 0 0 0 0.25 0"/>
<feBlend mode="normal" in2="BackgroundImageFix" result="effect1_dropShadow_60_2673"/>
<feBlend mode="normal" in="SourceGraphic" in2="effect1_dropShadow_60_2673" result="shape"/>
</filter>
<filter id="filter7_d_60_2673" x="138.042" y="127.874" width="6.28803" height="7.32123" filterUnits="userSpaceOnUse" color-interpolation-filters="sRGB">
<feFlood flood-opacity="0" result="BackgroundImageFix"/>
<feColorMatrix in="SourceAlpha" type="matrix" values="0 0 0 0 0 0 0 0 0 0 0 0 0 0 0 0 0 0 127 0" result="hardAlpha"/>
<feOffset dy="0.826891"/>
<feGaussianBlur stdDeviation="0.826891"/>
<feComposite in2="hardAlpha" operator="out"/>
<feColorMatrix type="matrix" values="0 0 0 0 0 0 0 0 0 0 0 0 0 0 0 0 0 0 0.25 0"/>
<feBlend mode="normal" in2="BackgroundImageFix" result="effect1_dropShadow_60_2673"/>
<feBlend mode="normal" in="SourceGraphic" in2="effect1_dropShadow_60_2673" result="shape"/>
</filter>
<filter id="filter8_d_60_2673" x="145.92" y="127.874" width="5.95209" height="7.32123" filterUnits="userSpaceOnUse" color-interpolation-filters="sRGB">
<feFlood flood-opacity="0" result="BackgroundImageFix"/>
<feColorMatrix in="SourceAlpha" type="matrix" values="0 0 0 0 0 0 0 0 0 0 0 0 0 0 0 0 0 0 127 0" result="hardAlpha"/>
<feOffset dy="0.826891"/>
<feGaussianBlur stdDeviation="0.826891"/>
<feComposite in2="hardAlpha" operator="out"/>
<feColorMatrix type="matrix" values="0 0 0 0 0 0 0 0 0 0 0 0 0 0 0 0 0 0 0.25 0"/>
<feBlend mode="normal" in2="BackgroundImageFix" result="effect1_dropShadow_60_2673"/>
<feBlend mode="normal" in="SourceGraphic" in2="effect1_dropShadow_60_2673" result="shape"/>
</filter>
<filter id="filter9_d_60_2673" x="152.948" y="127.874" width="7.28413" height="7.32123" filterUnits="userSpaceOnUse" color-interpolation-filters="sRGB">
<feFlood flood-opacity="0" result="BackgroundImageFix"/>
<feColorMatrix in="SourceAlpha" type="matrix" values="0 0 0 0 0 0 0 0 0 0 0 0 0 0 0 0 0 0 127 0" result="hardAlpha"/>
<feOffset dy="0.826891"/>
<feGaussianBlur stdDeviation="0.826891"/>
<feComposite in2="hardAlpha" operator="out"/>
<feColorMatrix type="matrix" values="0 0 0 0 0 0 0 0 0 0 0 0 0 0 0 0 0 0 0.25 0"/>
<feBlend mode="normal" in2="BackgroundImageFix" result="effect1_dropShadow_60_2673"/>
<feBlend mode="normal" in="SourceGraphic" in2="effect1_dropShadow_60_2673" result="shape"/>
</filter>
<filter id="filter10_d_60_2673" x="161.588" y="127.874" width="6.72944" height="7.37397" filterUnits="userSpaceOnUse" color-interpolation-filters="sRGB">
<feFlood flood-opacity="0" result="BackgroundImageFix"/>
<feColorMatrix in="SourceAlpha" type="matrix" values="0 0 0 0 0 0 0 0 0 0 0 0 0 0 0 0 0 0 127 0" result="hardAlpha"/>
<feOffset dy="0.826891"/>
<feGaussianBlur stdDeviation="0.826891"/>
<feComposite in2="hardAlpha" operator="out"/>
<feColorMatrix type="matrix" values="0 0 0 0 0 0 0 0 0 0 0 0 0 0 0 0 0 0 0.25 0"/>
<feBlend mode="normal" in2="BackgroundImageFix" result="effect1_dropShadow_60_2673"/>
<feBlend mode="normal" in="SourceGraphic" in2="effect1_dropShadow_60_2673" result="shape"/>
</filter>
<filter id="filter11_d_60_2673" x="169.67" y="127.874" width="6.66694" height="7.32123" filterUnits="userSpaceOnUse" color-interpolation-filters="sRGB">
<feFlood flood-opacity="0" result="BackgroundImageFix"/>
<feColorMatrix in="SourceAlpha" type="matrix" values="0 0 0 0 0 0 0 0 0 0 0 0 0 0 0 0 0 0 127 0" result="hardAlpha"/>
<feOffset dy="0.826891"/>
<feGaussianBlur stdDeviation="0.826891"/>
<feComposite in2="hardAlpha" operator="out"/>
<feColorMatrix type="matrix" values="0 0 0 0 0 0 0 0 0 0 0 0 0 0 0 0 0 0 0.25 0"/>
<feBlend mode="normal" in2="BackgroundImageFix" result="effect1_dropShadow_60_2673"/>
<feBlend mode="normal" in="SourceGraphic" in2="effect1_dropShadow_60_2673" result="shape"/>
</filter>
<filter id="filter12_d_60_2673" x="177.1" y="127.874" width="6.89741" height="7.32123" filterUnits="userSpaceOnUse" color-interpolation-filters="sRGB">
<feFlood flood-opacity="0" result="BackgroundImageFix"/>
<feColorMatrix in="SourceAlpha" type="matrix" values="0 0 0 0 0 0 0 0 0 0 0 0 0 0 0 0 0 0 127 0" result="hardAlpha"/>
<feOffset dy="0.826891"/>
<feGaussianBlur stdDeviation="0.826891"/>
<feComposite in2="hardAlpha" operator="out"/>
<feColorMatrix type="matrix" values="0 0 0 0 0 0 0 0 0 0 0 0 0 0 0 0 0 0 0.25 0"/>
<feBlend mode="normal" in2="BackgroundImageFix" result="effect1_dropShadow_60_2673"/>
<feBlend mode="normal" in="SourceGraphic" in2="effect1_dropShadow_60_2673" result="shape"/>
</filter>
<clipPath id="clip0_60_2673">
<rect width="256" height="256" fill="white"/>
</clipPath>
</defs>
</svg>
